<?xml version="1.0" encoding="utf-8"?>
<!-- Generator: Adobe Illustrator 18.1.1, SVG Export Plug-In . SVG Version: 6.00 Build 0)  -->
<svg version="1.1" xmlns="http://www.w3.org/2000/svg" xmlns:xlink="http://www.w3.org/1999/xlink" x="0px" y="0px"
	 viewBox="0 0 252.8 195.4" enable-background="new 0 0 252.8 195.4" xml:space="preserve">
<symbol  id="woodworking" viewBox="-69.1 -6.1 138.1 12.3">
	<g>
		<path fill="#FFFFFF" d="M-55,3c0.1,0.3,0.2,0.5,0.2,0.8s0.1,0.5,0.1,0.7c0,0.3-0.1,0.5-0.2,0.7s-0.4,0.2-0.7,0.3V6h3.7V5.4
			c-0.2,0-0.4-0.1-0.5-0.3s-0.3-0.3-0.4-0.5s-0.3-0.6-0.4-1.1l-3.3-9.6h-2.1l-2,8.3l-2.4-8.3h-2.2l-2.6,9.8c-0.1,0.5-0.2,0.8-0.3,1
			s-0.2,0.3-0.3,0.4s-0.3,0.2-0.5,0.2V6h4.7V5.4c-0.3,0-0.5-0.1-0.7-0.3s-0.2-0.3-0.2-0.6c0-0.3,0.1-0.8,0.3-1.5l1.5-6.1l2.5,9h2
			l2.1-9L-55,3z"/>
		<path fill="#FFFFFF" d="M-46.3-6.1c-1.7,0-3,0.5-3.9,1.5s-1.3,2.5-1.3,4.5c0,1.3,0.2,2.4,0.6,3.4s1,1.6,1.9,2.1s1.8,0.7,2.9,0.7
			c1.8,0,3.1-0.5,3.9-1.5s1.3-2.5,1.3-4.5c0-1.1-0.1-2.1-0.4-2.9s-0.6-1.4-1.1-2s-1.1-0.9-1.7-1.1S-45.5-6.1-46.3-6.1z M-48.7,0.1
			c0-1.8,0.2-3.1,0.6-4s1.1-1.3,1.9-1.3c0.5,0,0.8,0.1,1.2,0.4s0.6,0.6,0.8,1s0.3,1,0.4,1.6s0.1,1.3,0.1,2c0,1.2-0.1,2.1-0.3,2.9
			s-0.5,1.4-0.8,1.8s-0.8,0.6-1.4,0.6c-0.8,0-1.5-0.4-1.9-1.2S-48.7,1.8-48.7,0.1z"/>
		<path fill="#FFFFFF" d="M-33.8-6.1c-1.7,0-3,0.5-3.9,1.5s-1.3,2.5-1.3,4.5c0,1.3,0.2,2.4,0.6,3.4s1,1.6,1.9,2.1s1.8,0.7,2.9,0.7
			c1.8,0,3.1-0.5,3.9-1.5s1.3-2.5,1.3-4.5c0-1.1-0.1-2.1-0.4-2.9s-0.6-1.4-1.1-2s-1.1-0.9-1.7-1.1S-32.9-6.1-33.8-6.1z M-36.2,0.1
			c0-1.8,0.2-3.1,0.6-4s1.1-1.3,1.9-1.3c0.5,0,0.8,0.1,1.2,0.4s0.6,0.6,0.8,1s0.3,1,0.4,1.6s0.1,1.3,0.1,2c0,1.2-0.1,2.1-0.3,2.9
			s-0.5,1.4-0.8,1.8s-0.8,0.6-1.4,0.6c-0.8,0-1.5-0.4-1.9-1.2S-36.2,1.8-36.2,0.1z"/>
		<path fill="#FFFFFF" d="M-22.1,6c1,0,1.8-0.1,2.5-0.2s1.2-0.4,1.7-0.7s0.9-0.7,1.2-1.2s0.5-1,0.7-1.6s0.2-1.3,0.2-2
			c0-0.9-0.1-1.7-0.3-2.5s-0.5-1.3-1-1.9c-0.4-0.5-0.8-0.8-1.4-1.1s-1.2-0.5-1.9-0.6C-20.9-5.9-21.7-6-22.7-6h-4v0.6
			c0.2,0.1,0.4,0.1,0.5,0.2s0.2,0.2,0.3,0.3s0.1,0.3,0.1,0.5s0,0.4,0,0.7v7.6c0,0.3,0,0.5,0,0.7s-0.1,0.3-0.1,0.5s-0.2,0.2-0.3,0.3
			s-0.3,0.1-0.5,0.2V6H-22.1z M-23-4.9c0.1,0,0.4,0,0.8,0c0.6,0,1.2,0.1,1.6,0.3c0.3,0.1,0.6,0.3,0.8,0.6c0.4,0.4,0.7,0.9,0.9,1.6
			c0.2,0.7,0.3,1.6,0.3,2.6c0,1.1-0.1,2-0.4,2.8s-0.7,1.3-1.3,1.6S-21.5,5-22.2,5c-0.4,0-0.6,0-0.8,0V-4.9z"/>
		<path fill="#FFFFFF" d="M-1,3c0.1,0.3,0.2,0.5,0.2,0.8s0.1,0.5,0.1,0.7c0,0.3-0.1,0.5-0.2,0.7s-0.4,0.2-0.7,0.3V6h3.7V5.4
			c-0.2,0-0.4-0.1-0.5-0.3S1.3,4.9,1.1,4.7S0.9,4.1,0.7,3.6l-3.3-9.6h-2.1l-2,8.3L-9-6.1h-2.2l-2.6,9.8c-0.1,0.5-0.2,0.8-0.3,1
			s-0.2,0.3-0.3,0.4s-0.3,0.2-0.5,0.2V6h4.7V5.4c-0.3,0-0.5-0.1-0.7-0.3s-0.2-0.3-0.2-0.6c0-0.3,0.1-0.8,0.3-1.5L-9.4-3l2.5,9h2
			l2.1-9L-1,3z"/>
		<path fill="#FFFFFF" d="M7.7-6.1c-1.7,0-3,0.5-3.9,1.5S2.5-2.1,2.5-0.1c0,1.3,0.2,2.4,0.6,3.4s1,1.6,1.9,2.1s1.8,0.7,2.9,0.7
			c1.8,0,3.1-0.5,3.9-1.5s1.3-2.5,1.3-4.5c0-1.1-0.1-2.1-0.4-2.9s-0.6-1.4-1.1-2S10.6-5.5,10-5.8S8.5-6.1,7.7-6.1z M5.3,0.1
			c0-1.8,0.2-3.1,0.6-4S7-5.1,7.9-5.1c0.5,0,0.8,0.1,1.2,0.4s0.6,0.6,0.8,1s0.3,1,0.4,1.6s0.1,1.3,0.1,2c0,1.2-0.1,2.1-0.3,2.9
			S9.6,4.1,9.3,4.5S8.4,5.1,7.8,5.1C7,5.1,6.4,4.7,5.9,3.9S5.3,1.8,5.3,0.1z"/>
		<path fill="#FFFFFF" d="M19.4-6h-4.6v0.6c0.2,0.1,0.4,0.1,0.5,0.2s0.2,0.2,0.3,0.3s0.1,0.3,0.1,0.5s0,0.4,0,0.7v7.6
			c0,0.3,0,0.5,0,0.7s-0.1,0.3-0.1,0.5s-0.2,0.2-0.3,0.3S15,5.4,14.8,5.4V6h5.1c0.7,0,1.3,0,1.8-0.1s0.9-0.2,1.3-0.4
			c0.3-0.2,0.6-0.4,0.8-0.6s0.4-0.5,0.5-0.9s0.2-0.7,0.2-1.2c0-0.6-0.1-1.1-0.3-1.5s-0.5-0.8-0.8-1s-0.8-0.5-1.4-0.8v-0.1
			C22.3-0.8,22.7-1,23-1.3s0.5-0.7,0.8-1.2l0.6-1.2c0.2-0.5,0.5-0.9,0.7-1.2s0.5-0.4,0.9-0.5V-6h-3.4c-0.3,0.5-0.7,1.2-1.2,2.1
			l-0.7,1.5c-0.2,0.4-0.4,0.8-0.5,0.9s-0.3,0.3-0.5,0.4S19.3-1,19-1h-0.5v-2.8c0-0.4,0-0.7,0.1-0.9s0.1-0.3,0.2-0.4s0.3-0.2,0.7-0.3
			V-6z M18.5,5V0.1h0.9c0.5,0,0.9,0.1,1.2,0.2s0.5,0.3,0.7,0.5s0.3,0.5,0.4,0.8s0.1,0.6,0.1,1c0,0.8-0.2,1.4-0.6,1.8S20.2,5,19.5,5
			C19,5,18.6,5,18.5,5z"/>
		<path fill="#FFFFFF" d="M37.1-3.7c0.2-0.4,0.4-0.6,0.6-0.8S38-4.9,38.1-5s0.2-0.2,0.3-0.3s0.3-0.1,0.5-0.2V-6h-4.8v0.6
			c0.2,0,0.3,0.1,0.4,0.1s0.1,0.2,0.1,0.3c0,0.1,0,0.2,0,0.3s-0.1,0.2-0.2,0.4s-0.3,0.5-0.6,1l-1.3,2.1C32.3-1,32.1-0.8,32-0.7
			s-0.2,0.2-0.4,0.3s-0.3,0.1-0.5,0.1H31v-3.5c0-0.2,0-0.4,0-0.6s0-0.3,0.1-0.4s0.1-0.2,0.2-0.3s0.2-0.1,0.3-0.2s0.3-0.1,0.4-0.1V-6
			h-4.6v0.6c0.2,0.1,0.4,0.1,0.5,0.2s0.2,0.2,0.3,0.3s0.1,0.3,0.1,0.5s0,0.4,0,0.7v7.6c0,0.3,0,0.5,0,0.7s-0.1,0.3-0.1,0.5
			S28,5.1,27.8,5.2s-0.3,0.1-0.5,0.2V6h4.6V5.4c-0.2-0.1-0.4-0.1-0.5-0.2S31.2,5,31.1,4.9S31,4.7,31,4.5s0-0.4,0-0.7V0.7h0.2
			c0.3,0,0.5,0,0.6,0.1s0.3,0.2,0.5,0.3s0.5,0.5,1,1.1s0.8,1,1,1.3s0.4,0.6,0.4,0.7s0.1,0.4,0.1,0.6c0,0.2-0.1,0.4-0.2,0.5
			s-0.3,0.2-0.6,0.2V6h4.5V5.4c-0.2,0-0.4-0.1-0.6-0.2S37.6,5,37.4,4.8S37,4.4,36.7,4l-2.6-3L37.1-3.7z"/>
		<path fill="#FFFFFF" d="M43.9-3.8c0-0.2,0-0.4,0-0.6s0-0.3,0.1-0.4s0.1-0.2,0.2-0.3s0.2-0.1,0.3-0.2s0.3-0.1,0.4-0.1V-6h-4.6v0.6
			c0.2,0.1,0.4,0.1,0.5,0.2S41-5.1,41-4.9s0.1,0.3,0.1,0.5s0,0.4,0,0.7v7.6c0,0.3,0,0.5,0,0.7S41.1,4.8,41,4.9s-0.2,0.2-0.3,0.3
			s-0.3,0.1-0.5,0.2V6h4.6V5.4c-0.2-0.1-0.4-0.1-0.5-0.2S44.1,5,44,4.9s-0.1-0.2-0.1-0.4s0-0.4,0-0.7V-3.8z"/>
		<path fill="#FFFFFF" d="M57.3,6V5.4c-0.2-0.1-0.4-0.1-0.5-0.2S56.6,5.1,56.6,5s-0.1-0.2-0.2-0.4s-0.1-0.5-0.1-0.8V-6h-2.2l-4,6.8
			C49.7,1.8,49.3,2.5,49,3h-0.1C49,1.8,49,0.4,49-1v-2.8c0-0.4,0-0.7,0.1-0.9s0.1-0.3,0.2-0.4s0.3-0.2,0.6-0.3V-6h-3.3v0.6
			c0.2,0.1,0.4,0.1,0.5,0.2s0.2,0.2,0.3,0.3s0.1,0.3,0.1,0.5s0,0.4,0,0.7v7.6c0,0.4,0,0.7-0.1,0.9S47.4,5,47.3,5.1S47,5.3,46.6,5.4
			V6h3.6l3.1-5.4c0.2-0.3,0.4-0.8,0.8-1.4s0.6-1.1,0.8-1.6H55C55-1,54.9,0.5,54.9,2.2v1.6c0,0.4,0,0.7,0,0.8S54.8,4.9,54.8,5
			s-0.1,0.2-0.2,0.2S54.2,5.3,54,5.4V6H57.3z"/>
		<path fill="#FFFFFF" d="M68,5.7V3.2h-1.2c-0.1,0.5-0.3,0.9-0.5,1.1s-0.4,0.5-0.7,0.6S65,5.1,64.6,5.1c-0.6,0-1.1-0.2-1.5-0.5
			S62.3,3.7,62,2.9s-0.4-1.8-0.4-2.9c0-1,0.1-1.9,0.3-2.7s0.4-1.3,0.8-1.8s0.8-0.6,1.3-0.6c0.5,0,0.9,0.2,1.1,0.5s0.4,0.8,0.4,1.5
			v0.3c0,0.4,0,0.8,0,1s-0.1,0.3-0.1,0.4s-0.1,0.2-0.2,0.2S64.8-1.1,64.6-1v0.6h4.5V-1c-0.3-0.1-0.5-0.2-0.6-0.3s-0.2-0.3-0.2-0.4
			s-0.1-0.4-0.1-0.8v-3.3l-1.3-0.3l-0.6,0.6c-0.7-0.4-1.5-0.6-2.4-0.6c-1.7,0-3,0.5-3.8,1.5s-1.3,2.5-1.3,4.5c0,1.1,0.1,2,0.4,2.8
			s0.7,1.5,1.2,2s1.1,0.9,1.8,1.1s1.4,0.3,2.1,0.3C65.7,6.1,66.9,6,68,5.7z"/>
	</g>
</symbol>
<symbol  id="woodworking_rotated" viewBox="-69.1 -6.1 138.1 12.3">
	
		<use xlink:href="#woodworking"  width="138.1" height="12.3" x="-69.1" y="-6.1" transform="matrix(-1 8.979300e-11 -8.979300e-11 -1 -4.882810e-04 -8.003553e-10)" overflow="visible"/>
</symbol>
<g id="Layer_2">
	<rect x="0" y="0" width="252.8" height="195.4"/>
</g>
<g id="website_colours">
	<path id="black" display="none" d="M-49.7-80v350h350V-80H-49.7z M248.9,131.3c0,1.7-1.4,3.1-3,3.5c0,0-172,52.6-172.1,52.6
		c-0.1,0-0.1,0-0.1-0.1c0,0,0,0,0,0c0,0,0,0,0,0c0,0-63.7-48.1-68.2-51.6c-1.1-0.9-2.1-2.1-2.1-3.6c0.2,0.1,0,0,0,0l0-44.6
		c0-2,1.5-3.2,3.3-3.6c1.5-0.5,3-0.9,4.6-1.4l0-23.4h0c0-3.6,4.7-5.5,8.3-6.6l10.2-3.1c1.6-0.5,3.1-0.9,4.6-1.1
		c1.5-0.2,2.9-0.4,4.2-0.4c1.3,0,2.6,0.1,3.8,0.4c2,0.4,3.9,1.3,5.4,2.5l2.9,2.2l0-5.9h0c0-3.6,4.7-5.5,8.3-6.6l10.7-3.3
		c3.2-1,6.2-1.5,8.8-1.5c3.3,0,6.1,0.8,8.5,2.3l0-6.1l15-4.6l19.1,14.5l0-20.3l15-4.6l5.7,4.3l0-6l12.8-3.9l8.3,2.8l0-5.3l13.9-4.3
		L207.5,28v6.7l6.3-1.9l29,21.9l0,25.3l4,3c0,0,0,0,0,0c0.4,0.3,0.8,0.7,1.1,1.1l0,0v0c0.6,0.7,0.9,1.6,0.9,2.6v0l0,0L248.9,131.3
		C248.9,131.3,248.9,131.3,248.9,131.3L248.9,131.3z"/>
	<g id="mint" display="none">
		<path display="inline" fill="none" d="M3.5,132.1C3.6,132.2,3.5,132.1,3.5,132.1L3.5,132.1z"/>
		<polygon display="inline" fill="#E7F2E4" points="142.9,47 139.2,44.2 124.8,48.6 101.2,30.7 91,33.8 118.3,54.6 		"/>
		<path display="inline" fill="#E7F2E4" d="M55.2,49.2l18,13.6c1.4,1,3,1.7,4.8,2c0.8,0.1,1.7,0.2,2.6,0.2c2.3,0,5-0.5,7.9-1.3
			l10.7-3.3c5.3-1.6,6.1-3,6.2-3.6c0-0.1,0-0.3,0-0.4c-0.2-0.6-0.9-1.3-1.5-1.8L85.8,41c-2-1.5-4.5-2.2-7.5-2.2
			c-2.3,0-5,0.5-7.9,1.3l-10.7,3.3c-5.3,1.6-6.1,3-6.2,3.6C53.5,47.7,54.4,48.6,55.2,49.2z M66.9,46.1c0.2-1,1.4-1.4,1.8-1.5l3-0.9
			c0.6-0.2,1.2-0.3,1.7-0.3c0.8,0,1.5,0.2,2,0.6l15.9,12c0.8,0.6,0.8,1.2,0.7,1.5c-0.2,1-1.4,1.4-1.8,1.5l-3,0.9
			c-0.6,0.2-1.2,0.3-1.7,0.3c-0.8,0-1.5-0.2-2-0.6l-15.9-12C66.9,47.1,66.8,46.5,66.9,46.1z"/>
		<path display="inline" fill="#E7F2E4" d="M15.8,61.2l18,13.6c1.4,1,3,1.7,4.9,2c0.8,0.1,1.6,0.2,2.5,0.2c2.3,0,5-0.5,7.9-1.3
			l10.2-3.1c5.3-1.6,6.1-3,6.2-3.6c0-0.1,0-0.3,0-0.4c-0.2-0.7-0.9-1.3-1.5-1.8l-4.7-3.6l-10.3,3.1l3,2.3c0.8,0.6,0.8,1.2,0.7,1.5
			c-0.2,1-1.4,1.4-1.8,1.5l-2.5,0.8c-0.6,0.2-1.2,0.3-1.7,0.3c-0.8,0-1.5-0.2-2-0.6L27.8,59.4c-0.8-0.6-0.8-1.2-0.7-1.5
			c0.2-1,1.4-1.4,1.8-1.5l2.5-0.8c0.6-0.2,1.2-0.3,1.7-0.3c0.8,0,1.5,0.2,2,0.6l4.3,3.3L49.7,56l-3.8-2.8c-2-1.5-4.5-2.2-7.5-2.2
			c-2.3,0-5,0.5-7.9,1.3l-10.2,3.1c-5.3,1.6-6.1,3-6.2,3.6C14.1,59.7,15,60.6,15.8,61.2z"/>
		<path display="inline" fill="#E7F2E4" d="M122.2,140.5c-1.3,0.4-2.4,1-3.4,1.9c-0.9,0.9-1.7,2-2.1,3.2c-0.5,1.3-0.7,2.7-0.7,4.3
			c0,2.4,0.5,4.1,1.5,5c1,0.9,2.5,1.1,4.5,0.4c1-0.3,1.8-0.7,2.6-1.2c0.8-0.5,1.4-1.2,2-2c0.6-0.8,1-1.7,1.3-2.8
			c0.3-1.1,0.4-2.2,0.4-3.6c0-2.4-0.5-4-1.5-4.9C125.8,140,124.2,139.9,122.2,140.5z M124.9,149.7c-0.1,0.8-0.3,1.4-0.5,2
			c-0.2,0.6-0.5,1.1-0.9,1.5c-0.4,0.4-0.8,0.7-1.3,0.9c-1,0.3-1.8,0-2.3-0.9c-0.5-0.9-0.7-2.4-0.7-4.5c0-2.1,0.2-3.6,0.7-4.8
			c0.5-1.1,1.2-1.8,2.2-2.1c0.7-0.2,1.2-0.1,1.7,0.2c0.4,0.3,0.8,1,1,1.9c0.2,0.9,0.3,2,0.3,3.4C125.1,148.1,125,148.9,124.9,149.7z
			"/>
		<polygon display="inline" fill="#E7F2E4" points="162.7,41 135.3,20.3 125.1,23.4 152.4,44.1 		"/>
		<path display="inline" fill="#E7F2E4" d="M96.5,148.5l0,0.7c0.3-0.1,0.6-0.1,0.8,0.1c0.2,0.1,0.3,0.4,0.3,0.7c0,0.2,0,0.5-0.1,0.9
			c-0.1,0.3-0.1,0.7-0.2,1.1l-2.2,7.8l-2.4-10.1l-2.3,0.7l-2.9,11.7l-1.8-6.8c-0.2-0.7-0.3-1.3-0.3-1.7c0-0.3,0.1-0.5,0.3-0.8
			c0.2-0.2,0.4-0.4,0.8-0.5l0-0.7l-5.5,1.7l0,0.7c0.2,0,0.4,0,0.5,0.1c0.1,0.1,0.3,0.2,0.4,0.4c0.1,0.2,0.3,0.6,0.4,1.1l3.1,11
			l2.6-0.8l2.7-10.8l2.3,9.3l2.4-0.7l3.8-12.8c0.2-0.7,0.4-1.2,0.5-1.5c0.1-0.3,0.3-0.6,0.5-0.8c0.2-0.2,0.4-0.4,0.6-0.5l0-0.7
			L96.5,148.5z"/>
		<path display="inline" fill="#E7F2E4" d="M107.6,145c-1.3,0.4-2.4,1-3.4,1.9c-0.9,0.9-1.7,2-2.2,3.2c-0.5,1.3-0.7,2.7-0.7,4.3
			c0,2.4,0.5,4.1,1.5,5c1,0.9,2.5,1.1,4.5,0.4c1-0.3,1.8-0.7,2.6-1.2c0.8-0.5,1.5-1.2,2-2c0.6-0.8,1-1.7,1.3-2.8
			c0.3-1.1,0.4-2.2,0.4-3.6c0-2.4-0.5-4-1.5-4.9C111.1,144.5,109.6,144.3,107.6,145z M110.3,154.2c-0.1,0.8-0.3,1.4-0.5,2
			c-0.2,0.6-0.5,1.1-0.9,1.5c-0.4,0.4-0.8,0.7-1.3,0.9c-1,0.3-1.8,0-2.3-0.9c-0.5-0.9-0.7-2.4-0.7-4.5c0-2.1,0.2-3.6,0.7-4.8
			c0.5-1.1,1.2-1.8,2.2-2.1c0.7-0.2,1.2-0.1,1.7,0.2c0.4,0.3,0.8,1,1,1.9c0.2,0.9,0.3,2,0.3,3.4
			C110.4,152.6,110.4,153.4,110.3,154.2z"/>
		<polygon display="inline" fill="#E7F2E4" points="204.5,50.7 193.3,42.2 184,45 209.5,64.3 218.7,61.4 207.9,53.2 218.7,49.9 
			229.5,58.1 238.7,55.3 213.3,36.1 204,38.9 215.3,47.4 		"/>
		<path display="inline" fill="#E7F2E4" d="M84.7,98.8l-1.9,0.6c-0.6,0.2-1.1,0.3-1.6,0.3c-0.7,0-1.4-0.2-1.9-0.6l-1.9-1.4l-9.4,2.9
			l1.7,1.3c1.8,1.4,4.2,2.1,6.9,2.1c2.2,0,4.6-0.4,7.4-1.3l9.1-2.8c4.9-1.5,5.6-2.8,5.7-3.2c0.1-0.7-0.9-1.6-1.4-2l-5.6-4.3
			c-0.2-0.1-0.4-0.3-0.6-0.4c-1.4-0.9-3-1.5-4.9-1.7c-0.4,0-0.8-0.1-1.2-0.1c-1.9,0-4.2,0.4-6.8,1.2l-3.9,1.2l-2.4,0.7
			c-0.6,0.2-1.1,0.3-1.6,0.3c-0.7,0-1.4-0.2-1.9-0.6l-4-3.1c-0.7-0.6-0.8-1.2-0.7-1.5c0.2-1,1.3-1.3,1.8-1.5l1.9-0.6
			c0.6-0.2,1.1-0.3,1.6-0.3c0.7,0,1.4,0.2,1.9,0.6l1.9,1.4l9.4-2.9l-1.7-1.3c-1.8-1.4-4.2-2.1-6.9-2.1c-2.1,0-4.6,0.4-7.3,1.2
			l-9.2,2.8c-4.9,1.5-5.6,2.8-5.7,3.2c-0.1,0.7,0.9,1.6,1.5,2l5.6,4.3c1.6,1.2,3.5,1.9,5.6,2.2c0.5,0.1,0.9,0.1,1.4,0.1
			c0.3,0,0.7,0,1,0c1.6-0.1,3.5-0.5,5.6-1.1l6.4-2c0.6-0.2,1.1-0.3,1.6-0.3c0.7,0,1.4,0.2,1.9,0.6l3.9,2.9c0.7,0.6,0.8,1.2,0.7,1.5
			C86.3,98.3,85.1,98.7,84.7,98.8z"/>
		<polygon display="inline" fill="#E7F2E4" points="167.6,77.1 142.2,57.8 132.8,60.7 158.2,79.9 		"/>
		<polygon display="inline" fill="#E7F2E4" points="193.2,69.2 171.2,52.5 179.5,50 176.1,47.4 150.1,55.4 153.5,57.9 161.7,55.4 
			183.8,72.1 		"/>
		<polygon display="inline" fill="#E7F2E4" points="182.3,35 163.7,20.9 194.7,31.2 203.4,28.6 176,7.8 166.8,10.6 185.7,25 
			154.4,14.4 145.7,17.1 173.1,37.8 		"/>
		<polygon display="inline" fill="#E7F2E4" points="148.2,83 122.8,63.7 111.6,67.2 120.1,81.8 96.1,71.9 85.5,75.2 110.9,94.4 
			119.1,91.9 97.1,75.3 120.6,85.1 127.2,83.1 119.2,69.6 140.1,85.5 		"/>
		<path display="inline" fill="#E7F2E4" d="M224.1,109.5l0,0.7c0.3,0,0.5,0,0.6,0c0.1,0,0.2,0.1,0.3,0.2c0.1,0.1,0.1,0.2,0.2,0.4
			c0,0.2,0.1,0.5,0.1,1l0,2c0,2,0,3.8,0.1,5.5l-0.2,0c-0.3-0.5-5.5-8.5-5.5-8.5l-4.1,1.3l0,0.7c0.4,0,0.6,0,0.8,0.1
			c0.1,0.1,0.2,0.2,0.3,0.4c0,0.2,0.1,0.6,0.1,1.1l0,9.2c0,0.3,0,0.6,0,0.8c0,0.2-0.1,0.4-0.1,0.6c-0.1,0.2-0.2,0.3-0.3,0.4
			c-0.1,0.1-0.3,0.3-0.6,0.4l0,0.7l3.9-1.2l0-0.7c-0.4,0-0.6,0-0.8-0.1c-0.1-0.1-0.2-0.2-0.3-0.4c-0.1-0.2-0.1-0.6-0.1-1.1l0-3.4
			c0-1.7,0-3.3-0.1-4.8l0.1,0c0.3,0.6,6,9.1,6,9.1l2.6-0.8l0-11.8c0-0.4,0-0.8,0.1-1c0-0.2,0.1-0.4,0.2-0.5c0.1-0.1,0.2-0.2,0.3-0.3
			c0.1-0.1,0.3-0.2,0.6-0.4l0-0.7L224.1,109.5z"/>
		<path display="inline" fill="#E7F2E4" d="M170.5,125.7c-1.3,0.4-2.4,1-3.4,1.9c-1,0.9-1.7,2-2.2,3.2c-0.5,1.3-0.7,2.7-0.7,4.3
			c0,2.4,0.5,4.1,1.5,5c1,0.9,2.5,1.1,4.5,0.4c1-0.3,1.8-0.7,2.6-1.2c0.8-0.5,1.5-1.2,2-2c0.6-0.8,1-1.7,1.3-2.8
			c0.3-1.1,0.4-2.2,0.4-3.6c0-2.4-0.5-4-1.5-4.9C174,125.2,172.5,125.1,170.5,125.7z M173.2,134.9c-0.1,0.8-0.3,1.4-0.5,2
			c-0.2,0.6-0.5,1.1-0.9,1.5c-0.4,0.4-0.8,0.7-1.3,0.9c-1,0.3-1.8,0-2.3-0.9c-0.5-0.9-0.7-2.4-0.7-4.5c0-2.1,0.2-3.6,0.7-4.8
			c0.5-1.1,1.2-1.8,2.2-2.1c0.7-0.2,1.2-0.1,1.7,0.2c0.4,0.3,0.8,1,1,1.9c0.2,0.9,0.3,2,0.3,3.4
			C173.3,133.4,173.3,134.2,173.2,134.9z"/>
		<path display="inline" fill="#E7F2E4" d="M212.9,126.5c-0.1,0-0.3-0.1-0.3-0.1c-0.1-0.1-0.1-0.2-0.2-0.3c0-0.1-0.1-0.3-0.1-0.5
			c0-0.2,0-0.4,0-0.7l0-9.2c0-0.4,0-0.7,0-0.9c0-0.2,0.1-0.4,0.1-0.5c0.1-0.1,0.2-0.3,0.3-0.4c0.1-0.1,0.3-0.3,0.6-0.4l0-0.7
			l-5.4,1.6l0,0.7c0.3,0,0.5,0,0.6,0c0.1,0,0.3,0.1,0.3,0.2c0.1,0.1,0.1,0.3,0.1,0.5c0,0.2,0,0.5,0,0.8l0,9.2c0,0.3,0,0.6,0,0.9
			c0,0.2-0.1,0.4-0.1,0.6c-0.1,0.2-0.2,0.3-0.3,0.4c-0.1,0.1-0.3,0.3-0.6,0.4l0,0.7l5.4-1.6l0-0.7
			C213.2,126.6,213.1,126.6,212.9,126.5z"/>
		<path display="inline" fill="#E7F2E4" d="M190.4,133c-0.3-0.2-0.6-0.6-0.9-1.2l-0.7-1.2c-0.3-0.5-0.6-0.9-0.9-1.2
			c-0.3-0.3-0.7-0.5-1.3-0.5v-0.1c0.7-0.5,1.2-1,1.6-1.4c0.4-0.4,0.7-1,1-1.5c0.2-0.6,0.4-1.2,0.4-1.9c0-0.5-0.1-1-0.2-1.3
			c-0.1-0.4-0.3-0.7-0.6-0.9c-0.2-0.2-0.5-0.4-0.9-0.5c-0.4-0.1-0.9-0.1-1.5-0.1c-0.6,0.1-1.2,0.2-2,0.5l-6,1.8l0,0.7
			c0.3,0,0.5,0,0.6,0.1c0.1,0,0.3,0.1,0.3,0.2c0.1,0.1,0.1,0.3,0.1,0.5c0,0.2,0,0.5,0,0.8l0,9.2c0,0.3,0,0.6,0,0.9
			c0,0.2-0.1,0.4-0.1,0.6c-0.1,0.2-0.2,0.3-0.3,0.4c-0.1,0.1-0.3,0.3-0.6,0.4l0,0.7l5.4-1.6l0-0.7c-0.4,0-0.6,0-0.8-0.1
			c-0.1-0.1-0.2-0.2-0.3-0.4c0-0.2-0.1-0.6-0.1-1.1l0-3.4l0.6-0.2c0.4-0.1,0.7-0.2,0.8-0.1c0.2,0,0.4,0.1,0.5,0.3
			c0.2,0.2,0.4,0.5,0.6,1l0.8,1.6c0.5,1,0.9,1.7,1.3,2.1l3.9-1.2l0-0.7C191,133.3,190.7,133.2,190.4,133z M186.4,126.4
			c-0.1,0.4-0.2,0.8-0.4,1.1c-0.2,0.3-0.5,0.6-0.8,0.9c-0.4,0.3-0.8,0.5-1.4,0.6l-1,0.3l0-5.9c0.2-0.1,0.6-0.2,1.2-0.4
			c0.9-0.3,1.5-0.2,1.9,0.1c0.4,0.3,0.7,1,0.7,2C186.5,125.5,186.5,126,186.4,126.4z"/>
		<path display="inline" fill="#E7F2E4" d="M236.4,113.5l0,0.7c0.3,0,0.5,0,0.6,0.1c0.1,0,0.2,0.1,0.3,0.2c0.1,0.1,0.1,0.3,0.2,0.5
			c0,0.2,0,0.6,0,1.1l0,0.4c0,0.8-0.1,1.4-0.4,1.9c-0.3,0.5-0.7,0.8-1.3,1c-0.6,0.2-1.1,0.1-1.5-0.3c-0.4-0.4-0.7-1-0.9-1.8
			c-0.2-0.8-0.3-1.9-0.3-3.1c0-1.4,0.1-2.7,0.4-3.7c0.3-1,0.7-1.8,1.2-2.4c0.5-0.6,1.1-1,1.8-1.2c0.5-0.2,0.9-0.2,1.2-0.1
			c0.3,0.1,0.6,0.2,0.8,0.5c0.2,0.3,0.4,0.7,0.5,1.2l1.4-0.4l0-3c-1.2,0-2.6,0.2-4.1,0.7c-0.9,0.3-1.7,0.7-2.5,1.2
			c-0.8,0.5-1.5,1.2-2.1,2c-0.6,0.8-1.1,1.8-1.4,2.8c-0.3,1.1-0.5,2.3-0.5,3.6c0,2.4,0.5,4.1,1.5,5c1,0.9,2.5,1.1,4.5,0.5
			c1-0.3,2-0.9,2.8-1.6l0.7,0.5l1.5-0.8l0-4c0-0.4,0-0.7,0.1-1c0-0.2,0.1-0.4,0.3-0.6c0.1-0.2,0.3-0.4,0.7-0.6l0-0.7L236.4,113.5z"
			/>
		<path display="inline" fill="#E7F2E4" d="M159.4,129.3l0,0.7c0.4-0.1,0.6-0.1,0.8,0.1c0.2,0.1,0.3,0.4,0.3,0.7
			c0,0.2,0,0.5-0.1,0.9c-0.1,0.3-0.1,0.7-0.2,1.1l-2.2,7.8l-2.4-10.1l-2.3,0.7l-2.9,11.7l-1.8-6.8c-0.2-0.7-0.3-1.3-0.3-1.7
			c0-0.3,0.1-0.5,0.3-0.8c0.2-0.2,0.4-0.4,0.8-0.5l0-0.7l-5.5,1.7l0,0.7c0.2,0,0.4,0,0.5,0.1c0.1,0.1,0.3,0.2,0.4,0.4
			c0.1,0.2,0.3,0.6,0.4,1.1l3.1,11l2.6-0.8l2.7-10.8l2.3,9.3l2.4-0.7l3.8-12.8c0.2-0.7,0.4-1.2,0.5-1.5c0.1-0.3,0.3-0.6,0.5-0.8
			c0.2-0.2,0.4-0.4,0.6-0.5l0-0.7L159.4,129.3z"/>
		<path display="inline" fill="#E7F2E4" d="M206,128.6c-0.1,0-0.3-0.1-0.4-0.2c-0.1-0.1-0.3-0.2-0.5-0.4c-0.2-0.2-0.4-0.5-0.7-0.8
			l-3.6-4.6l3.1-4.5c0.4-0.5,0.7-1,0.9-1.3c0.2-0.3,0.5-0.5,0.6-0.7c0.2-0.2,0.4-0.3,0.7-0.4l0-0.7l-5.2,1.6l0,0.7
			c0.3-0.1,0.5-0.1,0.7,0c0.2,0.1,0.2,0.3,0.2,0.5c0,0.2,0,0.5-0.1,0.7c-0.1,0.3-0.3,0.6-0.5,1.1c-0.2,0.4-0.6,1.1-1.2,1.9
			c-0.6,0.9-0.9,1.4-1.1,1.6c-0.2,0.2-0.4,0.4-0.6,0.6c-0.2,0.1-0.4,0.2-0.8,0.3l-0.2,0.1l0-3.8c0-0.4,0-0.7,0-0.9
			c0-0.2,0.1-0.4,0.1-0.5c0.1-0.1,0.2-0.3,0.3-0.4c0.1-0.1,0.3-0.3,0.6-0.4l0-0.7L193,119l0,0.7c0.3,0,0.5,0,0.6,0.1
			c0.1,0,0.3,0.1,0.3,0.2c0.1,0.1,0.1,0.3,0.1,0.5c0,0.2,0,0.5,0,0.8l0,9.2c0,0.3,0,0.6,0,0.9c0,0.2-0.1,0.4-0.1,0.6
			c-0.1,0.2-0.2,0.3-0.3,0.4c-0.1,0.1-0.3,0.3-0.6,0.4l0,0.7l5.4-1.6l0-0.7c-0.2,0-0.4,0-0.5,0c-0.1,0-0.2-0.1-0.3-0.1
			c-0.1-0.1-0.1-0.2-0.2-0.3c0-0.1-0.1-0.3-0.1-0.5c0-0.2,0-0.4,0-0.7l0-4.2l0.2-0.1c0.3-0.1,0.4-0.1,0.6-0.1c0.1,0,0.3,0.1,0.4,0.2
			c0.1,0.1,0.3,0.3,0.5,0.6l1.6,2c0.4,0.5,0.6,0.8,0.7,1c0.1,0.2,0.2,0.3,0.2,0.4s0,0.2,0,0.3c0,0.1,0,0.3-0.1,0.4
			c-0.1,0.1-0.2,0.2-0.5,0.3l0,0.7l5.6-1.7l0-0.7C206.3,128.7,206.1,128.7,206,128.6z"/>
		<path display="inline" fill="#E7F2E4" d="M75.2,134.9c9.3-2.8,161.9-49.5,168.2-51.4c0,0-1.7-1.2-2.6-1.9l0,0v0.1l-11.6,3.5
			l-8.5-6.4l0,9l-11.6,3.5l-13.9-10.5l0,14.8l-11.8,3.6l-13.9-10.5l0,14.7L158,107l-7.6-5.8l0,8.1l-10.4,3.2l-11.3-8.6l0,5.7
			l-7.5,2.3l0,6.3l-10.5,3.2l-11-8.3c0,0.5,0,1,0,1.5c0,2.4,0,4.9,0,7.3c0,3.3-4.7,4.3-7.2,5.1c-2.8,0.8-9.5,2.9-10.1,3
			c-1.9,0.5-3.8,0.8-5.7,0.8c-2.8,0-5.5-0.7-7.9-2.5c-0.6-0.5-2.9-2-3-2.3c-0.2-0.3,0-1.2,0-1.6c0-0.6,0-1.3,0-1.9
			c-0.1,0-0.2,0-0.3,0c-0.1,0-0.1,0-0.2,0c-0.1,0-0.3,0-0.4,0c-0.2,0-0.3,0-0.5,0c-0.2,0-0.3,0-0.5,0c-0.1,0-0.1,0-0.2,0
			c-0.1,0-0.2,0-0.4-0.1c-0.2,0-0.4-0.1-0.6-0.1c-0.2,0-0.4-0.1-0.6-0.1c-0.2-0.1-0.5-0.1-0.7-0.2c-0.3-0.1-0.6-0.2-0.9-0.3
			c-1-0.4-1.9-0.9-2.7-1.6l-5.6-4.3c-0.5-0.4-0.8-0.7-1.1-1c-0.5-0.6-0.7-1.1-0.7-1.6l0-10.8c-0.3,0.1-0.5,0.2-0.8,0.2
			c-2.6,0.8-5.4,1.4-8.1,1.4c-0.6,0-1.2,0-1.8-0.1c-0.6-0.1-1.2-0.2-1.8-0.3c-2-0.5-3.6-1.4-5.2-2.6c-1.4-1-15.7-11.9-17.2-13
			c-1.2-0.9-2-1.9-2-3.3c-0.8,0.2-4,1.2-4,1.2l64,48.5c-0.6,1.5-0.8,3.2-0.9,4.8L5.8,88.8v2.5l66.4,50.3l0.8,0.6l1.2-0.3l172.3-52.7
			v-2.1L74.3,139.8C74.4,137.8,74.7,136.2,75.2,134.9z"/>
		<path display="inline" fill="#E7F2E4" d="M141.9,137.2c-0.4-0.4-0.8-0.8-1.4-1c-0.6-0.2-1.3-0.3-2-0.2c-0.8,0-1.7,0.2-2.9,0.6
			l-5.3,1.6l0,0.7c0.3,0,0.5,0,0.6,0.1c0.1,0,0.3,0.1,0.3,0.2c0.1,0.1,0.1,0.3,0.1,0.5c0,0.2,0,0.5,0,0.8l0,9.2c0,0.3,0,0.6,0,0.9
			c0,0.2-0.1,0.4-0.1,0.6c-0.1,0.2-0.2,0.3-0.3,0.4c-0.1,0.1-0.3,0.3-0.6,0.4l0,0.7l4.6-1.4c1.1-0.3,2-0.7,2.7-1
			c0.8-0.4,1.6-0.9,2.2-1.5c0.6-0.6,1.2-1.2,1.6-1.9c0.5-0.8,0.9-1.6,1.1-2.6c0.3-0.9,0.4-2,0.4-3.1c0-0.9-0.1-1.7-0.3-2.4
			C142.5,138.2,142.2,137.6,141.9,137.2z M139.3,145.7c-0.2,0.9-0.6,1.6-1,2.2c-0.3,0.4-0.6,0.7-1,1c-0.5,0.4-1.1,0.7-1.9,0.9
			c-0.5,0.2-0.8,0.2-0.9,0.3l0-12c0.2-0.1,0.5-0.2,0.9-0.3c0.9-0.3,1.6-0.3,2.3,0c0.6,0.2,1.1,0.7,1.5,1.5c0.3,0.8,0.5,1.9,0.5,3.2
			C139.7,143.7,139.5,144.8,139.3,145.7z"/>
	</g>
	<g id="gold_1_">
		<path fill="#C8BF0F" d="M172,127.2c-0.4-0.4-1-0.4-1.7-0.2c-1,0.3-1.7,1-2.2,2.1c-0.5,1.1-0.7,2.7-0.7,4.8c0,2.1,0.3,3.7,0.7,4.5
			c0.5,0.9,1.2,1.2,2.3,0.9c0.5-0.2,1-0.5,1.3-0.9c0.4-0.4,0.7-0.9,0.9-1.5c0.2-0.6,0.4-1.3,0.5-2c0.1-0.7,0.2-1.6,0.2-2.4
			c0-1.4-0.1-2.6-0.3-3.4C172.8,128.2,172.5,127.6,172,127.2z"/>
		<path fill="#C8BF0F" d="M109.1,146.4c-0.4-0.4-1-0.4-1.7-0.2c-1,0.3-1.7,1-2.2,2.1c-0.5,1.1-0.7,2.7-0.7,4.8
			c0,2.1,0.3,3.7,0.7,4.5c0.5,0.9,1.2,1.2,2.3,0.9c0.5-0.2,1-0.4,1.3-0.9c0.4-0.4,0.7-0.9,0.9-1.5c0.2-0.6,0.4-1.3,0.5-2
			c0.1-0.7,0.1-1.6,0.1-2.4c0-1.4-0.1-2.6-0.3-3.4C109.9,147.4,109.6,146.8,109.1,146.4z"/>
		<path fill="#C8BF0F" d="M123.8,142c-0.4-0.4-1-0.4-1.7-0.2c-1,0.3-1.7,1-2.2,2.1c-0.5,1.1-0.7,2.7-0.7,4.8c0,2.1,0.3,3.7,0.7,4.5
			c0.5,0.9,1.3,1.2,2.3,0.9c0.5-0.2,1-0.4,1.3-0.9c0.4-0.4,0.7-0.9,0.9-1.5c0.2-0.6,0.4-1.3,0.5-2c0.1-0.7,0.1-1.6,0.1-2.4
			c0-1.4-0.1-2.6-0.3-3.4C124.5,142.9,124.2,142.3,123.8,142z"/>
		<path fill="#C8BF0F" d="M183.9,123c-0.6,0.2-1,0.3-1.2,0.4l0,5.9l1-0.3c0.5-0.2,1-0.4,1.4-0.6c0.4-0.3,0.6-0.6,0.8-0.9
			c0.2-0.3,0.3-0.7,0.4-1.1c0.1-0.4,0.1-0.8,0.1-1.2c0-1-0.2-1.6-0.7-2C185.4,122.8,184.8,122.8,183.9,123z"/>
		<path fill="#C8BF0F" d="M137.7,137.8c-0.6-0.2-1.4-0.2-2.3,0c-0.4,0.1-0.7,0.2-0.9,0.3l0,12c0.1,0,0.4-0.1,0.9-0.3
			c0.7-0.2,1.4-0.5,1.9-0.9c0.4-0.3,0.7-0.6,1-1c0.5-0.6,0.8-1.4,1-2.2c0.2-0.9,0.4-2,0.4-3.2c0-1.3-0.2-2.4-0.5-3.2
			C138.8,138.5,138.3,138,137.7,137.8z"/>
		<path fill="#C8BF0F" d="M248.9,86.7L248.9,86.7L248.9,86.7c0-1-0.4-1.9-0.9-2.6v0l0,0c-0.3-0.4-0.7-0.8-1.1-1.1c0,0,0,0,0,0l-4-3
			l0-25.3l-29-21.9l-6.3,1.9V28L176.6,4.5l-13.9,4.3l0,5.3l-8.3-2.8l-12.8,3.9l0,6l-5.7-4.3l-15,4.6l0,20.3l-19.1-14.5l-15,4.6
			l0,6.1c-2.4-1.5-5.2-2.3-8.5-2.3c-2.6,0-5.6,0.5-8.8,1.5l-10.7,3.3c-3.6,1.1-8.3,3-8.3,6.6h0l0,5.9l-2.9-2.2
			c-1.6-1.2-3.4-2-5.4-2.5c-1.2-0.3-2.5-0.4-3.8-0.4c-1.3,0-2.7,0.1-4.2,0.4c-1.4,0.2-3,0.6-4.6,1.1l-10.2,3.1
			c-3.6,1.1-8.3,3-8.3,6.6h0l0,23.4c-1.5,0.5-3,0.9-4.6,1.4c-1.7,0.4-3.3,1.6-3.3,3.6l0,44.6c0,0,0.2,0.1,0,0c0,1.5,0.9,2.7,2.1,3.6
			c4.5,3.6,68.2,51.6,68.2,51.6c0,0,0,0,0,0c0,0,0,0,0,0c0,0,0.1,0.1,0.1,0.1c0,0,172.1-52.6,172.1-52.6c1.6-0.5,3-1.8,3-3.5l0,0
			c0,0,0,0,0,0L248.9,86.7z M213.3,36.1l25.4,19.3l-9.2,2.8l-10.8-8.2l-10.8,3.3l10.8,8.2l-9.2,2.8L184,45l9.2-2.8l11.2,8.5
			l10.8-3.3L204,38.9L213.3,36.1z M127.2,83.1l-6.5,2l-23.6-9.9l22,16.7l-8.2,2.5L85.5,75.2l10.7-3.3l24,9.9l-8.5-14.7l11.2-3.4
			L148.2,83l-8.1,2.5l-21-15.9L127.2,83.1z M85.7,95.9l-3.9-2.9c-0.5-0.4-1.2-0.6-1.9-0.6c-0.5,0-1,0.1-1.6,0.3l-6.4,2
			c-2.1,0.6-3.9,1-5.6,1.1c-0.3,0-0.7,0-1,0c-0.5,0-1,0-1.4-0.1c-2.1-0.3-4-1-5.6-2.2l-5.6-4.3c-0.6-0.5-1.6-1.3-1.5-2
			c0.1-0.5,0.8-1.8,5.7-3.2l9.2-2.8c2.7-0.8,5.1-1.2,7.3-1.2c2.8,0,5.1,0.7,6.9,2.1l1.7,1.3l-9.4,2.9l-1.9-1.4
			c-0.5-0.4-1.2-0.6-1.9-0.6c-0.5,0-1,0.1-1.6,0.3l-1.9,0.6c-0.4,0.1-1.6,0.5-1.8,1.5c-0.1,0.3,0,0.9,0.7,1.5l4,3.1
			c0.5,0.4,1.2,0.6,1.9,0.6c0.5,0,1-0.1,1.6-0.3l2.4-0.7l3.9-1.2c2.6-0.8,4.9-1.2,6.8-1.2c0.4,0,0.9,0,1.2,0.1
			c1.8,0.2,3.5,0.8,4.9,1.7c0.2,0.1,0.4,0.3,0.6,0.4l5.6,4.3c0.6,0.5,1.6,1.3,1.4,2c-0.1,0.5-0.8,1.8-5.7,3.2l-9.1,2.8
			c-2.7,0.8-5.2,1.3-7.4,1.3c-2.8,0-5.1-0.7-6.9-2.1l-1.7-1.3l9.4-2.9l1.9,1.4c0.5,0.4,1.2,0.6,1.9,0.6c0.5,0,1-0.1,1.6-0.3l1.9-0.6
			c0.4-0.1,1.6-0.5,1.8-1.5C86.5,97,86.5,96.4,85.7,95.9z M132.8,60.7l9.4-2.9l25.4,19.3l-9.4,2.9L132.8,60.7z M161.7,55.4l-8.3,2.5
			l-3.4-2.6l26-8l3.4,2.6l-8.3,2.5l22,16.7l-9.4,2.9L161.7,55.4z M154.4,14.4L185.7,25l-18.9-14.3l9.2-2.8l27.4,20.7l-8.7,2.6
			l-31.1-10.3L182.3,35l-9.2,2.8l-27.4-20.7L154.4,14.4z M135.3,20.3L162.7,41l-10.3,3.1l-27.4-20.7L135.3,20.3z M101.2,30.7
			l23.6,17.9l14.3-4.4l3.8,2.9l-24.6,7.5L91,33.8L101.2,30.7z M53.6,46.9c0.1-0.5,0.9-1.9,6.2-3.6l10.7-3.3c2.9-0.9,5.6-1.3,7.9-1.3
			c3,0,5.5,0.8,7.5,2.2l18,13.6c0.6,0.5,1.4,1.2,1.5,1.8c0,0.1,0.1,0.3,0,0.4c-0.1,0.5-0.9,1.9-6.2,3.6l-10.7,3.3
			C85.6,64.6,83,65,80.6,65c-0.9,0-1.8-0.1-2.6-0.2c-1.9-0.3-3.5-1-4.8-2l-18-13.6C54.4,48.6,53.5,47.7,53.6,46.9z M14.2,59
			c0.1-0.5,0.9-1.9,6.2-3.6l10.2-3.1c2.9-0.9,5.6-1.3,7.9-1.3c3,0,5.5,0.8,7.5,2.2l3.8,2.8l-10.3,3.1l-4.3-3.3
			c-0.6-0.4-1.2-0.6-2-0.6c-0.5,0-1.1,0.1-1.7,0.3l-2.5,0.8c-0.5,0.1-1.7,0.5-1.8,1.5c-0.1,0.3,0,1,0.7,1.5l16.8,12.7
			c0.6,0.4,1.2,0.6,2,0.6c0.5,0,1.1-0.1,1.7-0.3l2.5-0.8c0.5-0.1,1.7-0.5,1.8-1.5c0.1-0.3,0-1-0.7-1.5l-3-2.3l10.3-3.1l4.7,3.6
			c0.7,0.5,1.4,1.2,1.5,1.8c0,0.1,0.1,0.3,0,0.4c-0.1,0.5-0.9,1.9-6.2,3.6l-10.2,3.1c-2.9,0.9-5.6,1.3-7.9,1.3
			c-0.9,0-1.7-0.1-2.5-0.2c-1.9-0.3-3.5-1-4.9-2l-18-13.6C15,60.6,14.1,59.7,14.2,59z M100.1,148.4c-0.2,0.2-0.3,0.5-0.5,0.8
			c-0.1,0.3-0.3,0.8-0.5,1.5l-3.8,12.8l-2.4,0.7l-2.3-9.3l-2.7,10.8l-2.6,0.8l-3.1-11c-0.1-0.5-0.3-0.9-0.4-1.1
			c-0.1-0.2-0.2-0.3-0.4-0.4c-0.1-0.1-0.3-0.1-0.5-0.1l0-0.7l5.5-1.7l0,0.7c-0.4,0.2-0.6,0.3-0.8,0.5c-0.2,0.2-0.3,0.5-0.3,0.8
			c0,0.4,0.1,0.9,0.3,1.7l1.8,6.8l2.9-11.7l2.3-0.7l2.4,10.1l2.2-7.8c0.1-0.4,0.2-0.7,0.2-1.1c0.1-0.3,0.1-0.6,0.1-0.9
			c0-0.4-0.1-0.6-0.3-0.7c-0.2-0.1-0.4-0.1-0.8-0.1l0-0.7l4.3-1.3l0,0.7C100.5,148,100.3,148.2,100.1,148.4z M113.2,153.9
			c-0.3,1-0.7,2-1.3,2.8c-0.6,0.8-1.2,1.4-2,2c-0.8,0.5-1.6,0.9-2.6,1.2c-2,0.6-3.5,0.5-4.5-0.4c-1-0.9-1.5-2.6-1.5-5
			c0-1.6,0.2-3,0.7-4.3c0.5-1.3,1.2-2.4,2.2-3.2c1-0.9,2.1-1.5,3.4-1.9c2-0.6,3.6-0.5,4.6,0.4c1,0.9,1.5,2.6,1.5,4.9
			C113.7,151.7,113.6,152.8,113.2,153.9z M127.9,149.4c-0.3,1-0.7,2-1.3,2.8c-0.6,0.8-1.2,1.4-2,2c-0.8,0.5-1.7,0.9-2.6,1.2
			c-2,0.6-3.5,0.5-4.5-0.4c-1-0.9-1.5-2.6-1.5-5c0-1.6,0.2-3,0.7-4.3c0.5-1.3,1.2-2.3,2.1-3.2c1-0.9,2.1-1.5,3.4-1.9
			c2-0.6,3.6-0.5,4.6,0.4c1,0.9,1.5,2.6,1.5,4.9C128.3,147.2,128.2,148.4,127.9,149.4z M142.6,144.3c-0.3,1-0.6,1.8-1.1,2.6
			c-0.4,0.7-1,1.3-1.6,1.9c-0.6,0.6-1.4,1-2.2,1.5c-0.7,0.3-1.6,0.7-2.7,1l-4.6,1.4l0-0.7c0.3-0.2,0.4-0.3,0.6-0.4
			c0.1-0.1,0.3-0.3,0.3-0.4c0.1-0.2,0.1-0.4,0.1-0.6c0-0.2,0-0.5,0-0.9l0-9.2c0-0.3,0-0.6,0-0.8c0-0.2-0.1-0.4-0.1-0.5
			c-0.1-0.1-0.2-0.2-0.3-0.2c-0.1-0.1-0.4-0.1-0.6-0.1l0-0.7l5.3-1.6c1.1-0.3,2.1-0.5,2.9-0.6c0.8,0,1.4,0,2,0.2
			c0.6,0.2,1.1,0.5,1.4,1c0.4,0.4,0.6,1,0.8,1.7c0.2,0.7,0.3,1.5,0.3,2.4C143,142.3,142.8,143.4,142.6,144.3z M163,129.2
			c-0.2,0.2-0.3,0.5-0.5,0.8c-0.1,0.3-0.3,0.8-0.5,1.5l-3.8,12.8l-2.4,0.7l-2.3-9.3l-2.7,10.8l-2.6,0.8l-3.1-11
			c-0.1-0.5-0.3-0.9-0.4-1.1c-0.1-0.2-0.2-0.3-0.4-0.4c-0.1-0.1-0.3-0.1-0.5-0.1l0-0.7l5.5-1.7l0,0.7c-0.4,0.2-0.6,0.3-0.8,0.5
			c-0.2,0.2-0.3,0.5-0.3,0.8c0,0.4,0.1,0.9,0.3,1.7l1.8,6.8l2.9-11.7l2.3-0.7l2.4,10.1l2.2-7.8c0.1-0.4,0.2-0.7,0.2-1.1
			c0.1-0.3,0.1-0.6,0.1-0.9c0-0.4-0.1-0.6-0.3-0.7c-0.2-0.1-0.4-0.1-0.8-0.1l0-0.7l4.3-1.3l0,0.7C163.4,128.8,163.2,129,163,129.2z
			 M176.1,134.7c-0.3,1-0.7,2-1.3,2.8c-0.6,0.8-1.2,1.4-2,2c-0.8,0.5-1.6,0.9-2.6,1.2c-2,0.6-3.5,0.5-4.5-0.4c-1-0.9-1.5-2.6-1.5-5
			c0-1.6,0.2-3,0.7-4.3c0.5-1.3,1.2-2.3,2.2-3.2c0.9-0.9,2.1-1.5,3.4-1.9c2-0.6,3.6-0.5,4.6,0.4c1,0.9,1.5,2.6,1.5,4.9
			C176.6,132.4,176.5,133.6,176.1,134.7z M187.5,135.2c-0.4-0.4-0.8-1.1-1.3-2.1l-0.8-1.6c-0.2-0.5-0.5-0.8-0.6-1
			c-0.2-0.2-0.3-0.3-0.5-0.3c-0.2,0-0.5,0-0.8,0.1l-0.6,0.2l0,3.4c0,0.5,0,0.9,0.1,1.1c0.1,0.2,0.1,0.3,0.3,0.4
			c0.1,0.1,0.4,0.1,0.8,0.1l0,0.7l-5.4,1.6l0-0.7c0.3-0.2,0.5-0.3,0.6-0.4c0.1-0.1,0.3-0.3,0.3-0.4c0.1-0.2,0.1-0.4,0.1-0.6
			c0-0.2,0-0.5,0-0.9l0-9.2c0-0.3,0-0.6,0-0.8c0-0.2-0.1-0.4-0.1-0.5c-0.1-0.1-0.2-0.2-0.3-0.2c-0.1-0.1-0.3-0.1-0.6-0.1l0-0.7
			l6-1.8c0.8-0.2,1.5-0.4,2-0.5c0.6-0.1,1.1,0,1.5,0.1c0.3,0.1,0.6,0.2,0.9,0.5c0.3,0.2,0.4,0.5,0.6,0.9c0.1,0.4,0.2,0.8,0.2,1.3
			c0,0.7-0.1,1.3-0.4,1.9c-0.2,0.6-0.6,1.1-1,1.5c-0.4,0.5-0.9,0.9-1.6,1.4v0.1c0.5,0.1,0.9,0.2,1.3,0.5c0.3,0.3,0.6,0.7,0.9,1.2
			l0.7,1.2c0.3,0.6,0.6,1,0.9,1.2c0.3,0.2,0.6,0.3,1,0.3l0,0.7L187.5,135.2z M201,131.1l0-0.7c0.2-0.1,0.4-0.2,0.5-0.3
			c0.1-0.1,0.1-0.2,0.1-0.4c0-0.1,0-0.2,0-0.3s-0.1-0.2-0.2-0.4c-0.1-0.2-0.4-0.5-0.7-1l-1.6-2c-0.2-0.2-0.4-0.4-0.5-0.6
			c-0.1-0.1-0.3-0.2-0.4-0.2c-0.1,0-0.3,0-0.6,0.1l-0.2,0.1l0,4.2c0,0.3,0,0.5,0,0.7c0,0.2,0,0.4,0.1,0.5c0,0.1,0.1,0.2,0.2,0.3
			c0.1,0.1,0.2,0.1,0.3,0.1c0.1,0,0.3,0,0.5,0l0,0.7l-5.4,1.6l0-0.7c0.3-0.2,0.5-0.3,0.6-0.4c0.1-0.1,0.3-0.3,0.3-0.4
			c0.1-0.2,0.1-0.4,0.1-0.6c0-0.2,0-0.5,0-0.9l0-9.2c0-0.3,0-0.6,0-0.8c0-0.2-0.1-0.4-0.1-0.5c-0.1-0.1-0.2-0.2-0.3-0.2
			c-0.1-0.1-0.4-0.1-0.6-0.1l0-0.7l5.4-1.6l0,0.7c-0.3,0.2-0.5,0.3-0.6,0.4c-0.1,0.1-0.2,0.3-0.3,0.4c-0.1,0.1-0.1,0.3-0.1,0.5
			c0,0.2,0,0.5,0,0.9l0,3.8l0.2-0.1c0.3-0.1,0.6-0.2,0.8-0.3c0.2-0.1,0.4-0.3,0.6-0.6c0.2-0.2,0.6-0.8,1.1-1.6
			c0.6-0.8,1-1.5,1.2-1.9c0.3-0.4,0.4-0.8,0.5-1.1c0.1-0.3,0.1-0.5,0.1-0.7c0-0.3-0.1-0.4-0.2-0.5c-0.2-0.1-0.4-0.1-0.7,0l0-0.7
			l5.2-1.6l0,0.7c-0.3,0.1-0.5,0.3-0.7,0.4c-0.2,0.2-0.4,0.4-0.6,0.7c-0.2,0.3-0.5,0.7-0.9,1.3l-3.1,4.5l3.6,4.6
			c0.3,0.4,0.5,0.6,0.7,0.8c0.2,0.2,0.3,0.3,0.5,0.4c0.1,0.1,0.3,0.2,0.4,0.2c0.1,0,0.3,0,0.5,0l0,0.7L201,131.1z M208.1,128.9
			l0-0.7c0.3-0.2,0.4-0.3,0.6-0.4c0.1-0.1,0.3-0.3,0.3-0.4c0.1-0.2,0.1-0.4,0.1-0.6c0-0.2,0-0.5,0-0.9l0-9.2c0-0.3,0-0.6,0-0.8
			c0-0.2-0.1-0.4-0.1-0.5c-0.1-0.1-0.2-0.2-0.3-0.2c-0.1,0-0.3-0.1-0.6,0l0-0.7l5.4-1.6l0,0.7c-0.3,0.2-0.5,0.3-0.6,0.4
			c-0.1,0.1-0.2,0.3-0.3,0.4c-0.1,0.2-0.1,0.3-0.1,0.5c0,0.2,0,0.5,0,0.9l0,9.2c0,0.3,0,0.5,0,0.7c0,0.2,0,0.4,0.1,0.5
			c0,0.1,0.1,0.2,0.2,0.3c0.1,0.1,0.2,0.1,0.3,0.1c0.1,0,0.3,0,0.5,0l0,0.7L208.1,128.9z M227.4,109.4c-0.1,0.1-0.2,0.2-0.3,0.3
			c-0.1,0.1-0.1,0.3-0.2,0.5c0,0.2-0.1,0.6-0.1,1l0,11.8l-2.6,0.8c0,0-5.7-8.5-6-9.1l-0.1,0c0.1,1.5,0.1,3.1,0.1,4.8l0,3.4
			c0,0.5,0,0.9,0.1,1.1c0.1,0.2,0.1,0.3,0.3,0.4c0.1,0.1,0.4,0.1,0.8,0.1l0,0.7l-3.9,1.2l0-0.7c0.3-0.2,0.5-0.3,0.6-0.4
			c0.1-0.1,0.3-0.3,0.3-0.4c0.1-0.2,0.1-0.4,0.1-0.6c0-0.2,0-0.5,0-0.8l0-9.2c0-0.5,0-0.9-0.1-1.1c0-0.2-0.1-0.3-0.3-0.4
			c-0.1-0.1-0.4-0.1-0.8-0.1l0-0.7l4.1-1.3c0,0,5.2,8,5.5,8.5l0.2,0c-0.1-1.7-0.1-3.5-0.1-5.5l0-2c0-0.5,0-0.8-0.1-1
			c0-0.2-0.1-0.3-0.2-0.4c-0.1-0.1-0.2-0.1-0.3-0.2c-0.1,0-0.3-0.1-0.6,0l0-0.7l3.9-1.2l0,0.7C227.7,109.2,227.5,109.3,227.4,109.4z
			 M240.9,113.2c-0.1,0.2-0.2,0.4-0.3,0.6c0,0.2-0.1,0.6-0.1,1l0,4l-1.5,0.8l-0.7-0.5c-0.8,0.8-1.7,1.3-2.8,1.6
			c-2,0.6-3.5,0.5-4.5-0.5c-1-0.9-1.5-2.6-1.5-5c0-1.3,0.2-2.5,0.5-3.6c0.3-1.1,0.8-2,1.4-2.8c0.6-0.8,1.3-1.5,2.1-2
			c0.8-0.5,1.6-0.9,2.5-1.2c1.5-0.5,2.9-0.7,4.1-0.7l0,3l-1.4,0.4c-0.2-0.6-0.3-1-0.5-1.2c-0.2-0.3-0.5-0.4-0.8-0.5
			c-0.3-0.1-0.7,0-1.2,0.1c-0.7,0.2-1.3,0.6-1.8,1.2c-0.5,0.6-0.9,1.4-1.2,2.4c-0.3,1-0.4,2.3-0.4,3.7c0,1.2,0.1,2.3,0.3,3.1
			c0.2,0.9,0.5,1.5,0.9,1.8c0.4,0.4,0.9,0.5,1.5,0.3c0.6-0.2,1-0.5,1.3-1c0.3-0.5,0.4-1.1,0.4-1.9l0-0.4c0-0.5,0-0.9,0-1.1
			c0-0.2-0.1-0.4-0.2-0.5c-0.1-0.1-0.2-0.2-0.3-0.2c-0.1,0-0.3-0.1-0.6-0.1l0-0.7l5.2-1.6l0,0.7C241.3,112.8,241,113,240.9,113.2z
			 M246.5,89.2L74.2,141.9l-1.2,0.3l-0.8-0.6L5.8,91.3v-2.5l66.5,50.4c0.1-1.5,0.4-3.2,0.9-4.8l-64-48.5c0,0,3.3-1,4-1.2
			c0.1,1.4,0.9,2.4,2,3.3c1.5,1.1,15.8,12,17.2,13c1.6,1.2,3.2,2.2,5.2,2.6c0.6,0.1,1.2,0.2,1.8,0.3c0.6,0.1,1.2,0.1,1.8,0.1
			c2.8,0,5.5-0.6,8.1-1.4c0.3-0.1,0.5-0.2,0.8-0.2l0,10.8c0,0.5,0.2,1.1,0.7,1.6c0.3,0.3,0.7,0.7,1.1,1l5.6,4.3
			c0.8,0.6,1.8,1.2,2.7,1.6c0.3,0.1,0.6,0.2,0.9,0.3c0.2,0.1,0.5,0.1,0.7,0.2c0.2,0.1,0.4,0.1,0.6,0.1c0.2,0,0.4,0.1,0.6,0.1
			c0.1,0,0.2,0,0.4,0.1c0.1,0,0.1,0,0.2,0c0.2,0,0.3,0,0.5,0c0.2,0,0.3,0,0.5,0c0.1,0,0.3,0,0.4,0c0.1,0,0.1,0,0.2,0
			c0.1,0,0.2,0,0.3,0c0,0.6,0,1.3,0,1.9c0,0.4-0.2,1.2,0,1.6c0.1,0.3,2.4,1.8,3,2.3c2.4,1.8,5.1,2.5,7.9,2.5c1.9,0,3.8-0.3,5.7-0.8
			c0.6-0.2,7.4-2.2,10.1-3c2.5-0.8,7.2-1.8,7.2-5.1c0-2.4,0-4.9,0-7.3c0-0.5,0-1,0-1.5l11,8.3l10.5-3.2l0-6.3l7.5-2.3l0-5.7
			l11.3,8.6l10.4-3.2l0-8.1l7.6,5.8l11.8-3.6l0-14.7l13.9,10.5l11.8-3.6l0-14.8l13.9,10.5l11.6-3.5l0-9l8.5,6.4l11.6-3.5v-0.1l0,0
			c0.9,0.7,2.6,1.9,2.6,1.9c-6.3,1.9-158.9,48.6-168.2,51.4c-0.5,1.3-0.8,2.9-0.9,4.9l172.2-52.7V89.2z"/>
		<path fill="#C8BF0F" d="M67.6,47.7l15.9,12c0.6,0.4,1.2,0.6,2,0.6c0.5,0,1.1-0.1,1.7-0.3l3-0.9c0.5-0.1,1.7-0.5,1.8-1.5
			c0.1-0.3,0-1-0.7-1.5l-15.9-12c-0.6-0.4-1.2-0.6-2-0.6c-0.5,0-1.1,0.1-1.7,0.3l-3,0.9c-0.5,0.1-1.7,0.5-1.8,1.5
			C66.8,46.5,66.9,47.1,67.6,47.7z"/>
	</g>
</g>
</svg>
