<?xml version="1.0" encoding="utf-8"?>
<!-- Generator: Adobe Illustrator 18.1.1, SVG Export Plug-In . SVG Version: 6.00 Build 0)  -->
<svg version="1.1" id="website_colours" xmlns="http://www.w3.org/2000/svg" xmlns:xlink="http://www.w3.org/1999/xlink" x="0px"
	 y="0px" viewBox="0 0 245.5 182.9" enable-background="new 0 0 245.5 182.9" xml:space="preserve">
<symbol  id="woodworking" viewBox="-69.1 -6.1 138.1 12.3">
	<g>
		<path fill="#FFFFFF" d="M-55,3c0.1,0.3,0.2,0.5,0.2,0.8s0.1,0.5,0.1,0.7c0,0.3-0.1,0.5-0.2,0.7s-0.4,0.2-0.7,0.3V6h3.7V5.4
			c-0.2,0-0.4-0.1-0.5-0.3s-0.3-0.3-0.4-0.5s-0.3-0.6-0.4-1.1l-3.3-9.6h-2.1l-2,8.3l-2.4-8.3h-2.2l-2.6,9.8c-0.1,0.5-0.2,0.8-0.3,1
			s-0.2,0.3-0.3,0.4s-0.3,0.2-0.5,0.2V6h4.7V5.4c-0.3,0-0.5-0.1-0.7-0.3s-0.2-0.3-0.2-0.6c0-0.3,0.1-0.8,0.3-1.5l1.5-6.1l2.5,9h2
			l2.1-9L-55,3z"/>
		<path fill="#FFFFFF" d="M-46.3-6.1c-1.7,0-3,0.5-3.9,1.5s-1.3,2.5-1.3,4.5c0,1.3,0.2,2.4,0.6,3.4s1,1.6,1.9,2.1s1.8,0.7,2.9,0.7
			c1.8,0,3.1-0.5,3.9-1.5s1.3-2.5,1.3-4.5c0-1.1-0.1-2.1-0.4-2.9s-0.6-1.4-1.1-2s-1.1-0.9-1.7-1.1S-45.5-6.1-46.3-6.1z M-48.7,0.1
			c0-1.8,0.2-3.1,0.6-4s1.1-1.3,1.9-1.3c0.5,0,0.8,0.1,1.2,0.4s0.6,0.6,0.8,1s0.3,1,0.4,1.6s0.1,1.3,0.1,2c0,1.2-0.1,2.1-0.3,2.9
			s-0.5,1.4-0.8,1.8s-0.8,0.6-1.4,0.6c-0.8,0-1.5-0.4-1.9-1.2S-48.7,1.8-48.7,0.1z"/>
		<path fill="#FFFFFF" d="M-33.8-6.1c-1.7,0-3,0.5-3.9,1.5s-1.3,2.5-1.3,4.5c0,1.3,0.2,2.4,0.6,3.4s1,1.6,1.9,2.1s1.8,0.7,2.9,0.7
			c1.8,0,3.1-0.5,3.9-1.5s1.3-2.5,1.3-4.5c0-1.1-0.1-2.1-0.4-2.9s-0.6-1.4-1.1-2s-1.1-0.9-1.7-1.1S-32.9-6.1-33.8-6.1z M-36.2,0.1
			c0-1.8,0.2-3.1,0.6-4s1.1-1.3,1.9-1.3c0.5,0,0.8,0.1,1.2,0.4s0.6,0.6,0.8,1s0.3,1,0.4,1.6s0.1,1.3,0.1,2c0,1.2-0.1,2.1-0.3,2.9
			s-0.5,1.4-0.8,1.8s-0.8,0.6-1.4,0.6c-0.8,0-1.5-0.4-1.9-1.2S-36.2,1.8-36.2,0.1z"/>
		<path fill="#FFFFFF" d="M-22.1,6c1,0,1.8-0.1,2.5-0.2s1.2-0.4,1.7-0.7s0.9-0.7,1.2-1.2s0.5-1,0.7-1.6s0.2-1.3,0.2-2
			c0-0.9-0.1-1.7-0.3-2.5s-0.5-1.3-1-1.9c-0.4-0.5-0.8-0.8-1.4-1.1s-1.2-0.5-1.9-0.6C-20.9-5.9-21.7-6-22.7-6h-4v0.6
			c0.2,0.1,0.4,0.1,0.5,0.2s0.2,0.2,0.3,0.3s0.1,0.3,0.1,0.5s0,0.4,0,0.7v7.6c0,0.3,0,0.5,0,0.7s-0.1,0.3-0.1,0.5s-0.2,0.2-0.3,0.3
			s-0.3,0.1-0.5,0.2V6H-22.1z M-23-4.9c0.1,0,0.4,0,0.8,0c0.6,0,1.2,0.1,1.6,0.3c0.3,0.1,0.6,0.3,0.8,0.6c0.4,0.4,0.7,0.9,0.9,1.6
			c0.2,0.7,0.3,1.6,0.3,2.6c0,1.1-0.1,2-0.4,2.8s-0.7,1.3-1.3,1.6S-21.5,5-22.2,5c-0.4,0-0.6,0-0.8,0V-4.9z"/>
		<path fill="#FFFFFF" d="M-1,3c0.1,0.3,0.2,0.5,0.2,0.8s0.1,0.5,0.1,0.7c0,0.3-0.1,0.5-0.2,0.7s-0.4,0.2-0.7,0.3V6h3.7V5.4
			c-0.2,0-0.4-0.1-0.5-0.3S1.3,4.9,1.1,4.7S0.9,4.1,0.7,3.6l-3.3-9.6h-2.1l-2,8.3L-9-6.1h-2.2l-2.6,9.8c-0.1,0.5-0.2,0.8-0.3,1
			s-0.2,0.3-0.3,0.4s-0.3,0.2-0.5,0.2V6h4.7V5.4c-0.3,0-0.5-0.1-0.7-0.3s-0.2-0.3-0.2-0.6c0-0.3,0.1-0.8,0.3-1.5L-9.4-3l2.5,9h2
			l2.1-9L-1,3z"/>
		<path fill="#FFFFFF" d="M7.7-6.1c-1.7,0-3,0.5-3.9,1.5S2.5-2.1,2.5-0.1c0,1.3,0.2,2.4,0.6,3.4s1,1.6,1.9,2.1s1.8,0.7,2.9,0.7
			c1.8,0,3.1-0.5,3.9-1.5s1.3-2.5,1.3-4.5c0-1.1-0.1-2.1-0.4-2.9s-0.6-1.4-1.1-2S10.6-5.5,10-5.8S8.5-6.1,7.7-6.1z M5.3,0.1
			c0-1.8,0.2-3.1,0.6-4S7-5.1,7.9-5.1c0.5,0,0.8,0.1,1.2,0.4s0.6,0.6,0.8,1s0.3,1,0.4,1.6s0.1,1.3,0.1,2c0,1.2-0.1,2.1-0.3,2.9
			S9.6,4.1,9.3,4.5S8.4,5.1,7.8,5.1C7,5.1,6.4,4.7,5.9,3.9S5.3,1.8,5.3,0.1z"/>
		<path fill="#FFFFFF" d="M19.4-6h-4.6v0.6c0.2,0.1,0.4,0.1,0.5,0.2s0.2,0.2,0.3,0.3s0.1,0.3,0.1,0.5s0,0.4,0,0.7v7.6
			c0,0.3,0,0.5,0,0.7s-0.1,0.3-0.1,0.5s-0.2,0.2-0.3,0.3S15,5.4,14.8,5.4V6h5.1c0.7,0,1.3,0,1.8-0.1s0.9-0.2,1.3-0.4
			c0.3-0.2,0.6-0.4,0.8-0.6s0.4-0.5,0.5-0.9s0.2-0.7,0.2-1.2c0-0.6-0.1-1.1-0.3-1.5s-0.5-0.8-0.8-1s-0.8-0.5-1.4-0.8v-0.1
			C22.3-0.8,22.7-1,23-1.3s0.5-0.7,0.8-1.2l0.6-1.2c0.2-0.5,0.5-0.9,0.7-1.2s0.5-0.4,0.9-0.5V-6h-3.4c-0.3,0.5-0.7,1.2-1.2,2.1
			l-0.7,1.5c-0.2,0.4-0.4,0.8-0.5,0.9s-0.3,0.3-0.5,0.4S19.3-1,19-1h-0.5v-2.8c0-0.4,0-0.7,0.1-0.9s0.1-0.3,0.2-0.4s0.3-0.2,0.7-0.3
			V-6z M18.5,5V0.1h0.9c0.5,0,0.9,0.1,1.2,0.2s0.5,0.3,0.7,0.5s0.3,0.5,0.4,0.8s0.1,0.6,0.1,1c0,0.8-0.2,1.4-0.6,1.8S20.2,5,19.5,5
			C19,5,18.6,5,18.5,5z"/>
		<path fill="#FFFFFF" d="M37.1-3.7c0.2-0.4,0.4-0.6,0.6-0.8S38-4.9,38.1-5s0.2-0.2,0.3-0.3s0.3-0.1,0.5-0.2V-6h-4.8v0.6
			c0.2,0,0.3,0.1,0.4,0.1s0.1,0.2,0.1,0.3c0,0.1,0,0.2,0,0.3s-0.1,0.2-0.2,0.4s-0.3,0.5-0.6,1l-1.3,2.1C32.3-1,32.1-0.8,32-0.7
			s-0.2,0.2-0.4,0.3s-0.3,0.1-0.5,0.1H31v-3.5c0-0.2,0-0.4,0-0.6s0-0.3,0.1-0.4s0.1-0.2,0.2-0.3s0.2-0.1,0.3-0.2s0.3-0.1,0.4-0.1V-6
			h-4.6v0.6c0.2,0.1,0.4,0.1,0.5,0.2s0.2,0.2,0.3,0.3s0.1,0.3,0.1,0.5s0,0.4,0,0.7v7.6c0,0.3,0,0.5,0,0.7s-0.1,0.3-0.1,0.5
			S28,5.1,27.8,5.2s-0.3,0.1-0.5,0.2V6h4.6V5.4c-0.2-0.1-0.4-0.1-0.5-0.2S31.2,5,31.1,4.9S31,4.7,31,4.5s0-0.4,0-0.7V0.7h0.2
			c0.3,0,0.5,0,0.6,0.1s0.3,0.2,0.5,0.3s0.5,0.5,1,1.1s0.8,1,1,1.3s0.4,0.6,0.4,0.7s0.1,0.4,0.1,0.6c0,0.2-0.1,0.4-0.2,0.5
			s-0.3,0.2-0.6,0.2V6h4.5V5.4c-0.2,0-0.4-0.1-0.6-0.2S37.6,5,37.4,4.8S37,4.4,36.7,4l-2.6-3L37.1-3.7z"/>
		<path fill="#FFFFFF" d="M43.9-3.8c0-0.2,0-0.4,0-0.6s0-0.3,0.1-0.4s0.1-0.2,0.2-0.3s0.2-0.1,0.3-0.2s0.3-0.1,0.4-0.1V-6h-4.6v0.6
			c0.2,0.1,0.4,0.1,0.5,0.2S41-5.1,41-4.9s0.1,0.3,0.1,0.5s0,0.4,0,0.7v7.6c0,0.3,0,0.5,0,0.7S41.1,4.8,41,4.9s-0.2,0.2-0.3,0.3
			s-0.3,0.1-0.5,0.2V6h4.6V5.4c-0.2-0.1-0.4-0.1-0.5-0.2S44.1,5,44,4.9s-0.1-0.2-0.1-0.4s0-0.4,0-0.7V-3.8z"/>
		<path fill="#FFFFFF" d="M57.3,6V5.4c-0.2-0.1-0.4-0.1-0.5-0.2S56.6,5.1,56.6,5s-0.1-0.2-0.2-0.4s-0.1-0.5-0.1-0.8V-6h-2.2l-4,6.8
			C49.7,1.8,49.3,2.5,49,3h-0.1C49,1.8,49,0.4,49-1v-2.8c0-0.4,0-0.7,0.1-0.9s0.1-0.3,0.2-0.4s0.3-0.2,0.6-0.3V-6h-3.3v0.6
			c0.2,0.1,0.4,0.1,0.5,0.2s0.2,0.2,0.3,0.3s0.1,0.3,0.1,0.5s0,0.4,0,0.7v7.6c0,0.4,0,0.7-0.1,0.9S47.4,5,47.3,5.1S47,5.3,46.6,5.4
			V6h3.6l3.1-5.4c0.2-0.3,0.4-0.8,0.8-1.4s0.6-1.1,0.8-1.6H55C55-1,54.9,0.5,54.9,2.2v1.6c0,0.4,0,0.7,0,0.8S54.8,4.9,54.8,5
			s-0.1,0.2-0.2,0.2S54.2,5.3,54,5.4V6H57.3z"/>
		<path fill="#FFFFFF" d="M68,5.7V3.2h-1.2c-0.1,0.5-0.3,0.9-0.5,1.1s-0.4,0.5-0.7,0.6S65,5.1,64.6,5.1c-0.6,0-1.1-0.2-1.5-0.5
			S62.3,3.7,62,2.9s-0.4-1.8-0.4-2.9c0-1,0.1-1.9,0.3-2.7s0.4-1.3,0.8-1.8s0.8-0.6,1.3-0.6c0.5,0,0.9,0.2,1.1,0.5s0.4,0.8,0.4,1.5
			v0.3c0,0.4,0,0.8,0,1s-0.1,0.3-0.1,0.4s-0.1,0.2-0.2,0.2S64.8-1.1,64.6-1v0.6h4.5V-1c-0.3-0.1-0.5-0.2-0.6-0.3s-0.2-0.3-0.2-0.4
			s-0.1-0.4-0.1-0.8v-3.3l-1.3-0.3l-0.6,0.6c-0.7-0.4-1.5-0.6-2.4-0.6c-1.7,0-3,0.5-3.8,1.5s-1.3,2.5-1.3,4.5c0,1.1,0.1,2,0.4,2.8
			s0.7,1.5,1.2,2s1.1,0.9,1.8,1.1s1.4,0.3,2.1,0.3C65.7,6.1,66.9,6,68,5.7z"/>
	</g>
</symbol>
<symbol  id="woodworking_rotated" viewBox="-69.1 -6.1 138.1 12.3">
	
		<use xlink:href="#woodworking"  width="138.1" height="12.3" x="-69.1" y="-6.1" transform="matrix(-1 8.979300e-11 -8.979300e-11 -1 -4.882810e-04 -8.003553e-10)" overflow="visible"/>
</symbol>
<g id="mint">
	<path fill="none" d="M0,127.6C0.2,127.7,0,127.6,0,127.6L0,127.6z"/>
	<polygon fill="#E7F2E4" points="139.5,42.5 135.7,39.7 121.4,44 97.8,26.2 87.5,29.3 114.9,50 	"/>
	<path fill="#E7F2E4" d="M51.7,44.6l18,13.6c1.4,1,3,1.7,4.8,2c0.8,0.1,1.7,0.2,2.6,0.2c2.3,0,5-0.5,7.9-1.3l10.7-3.3
		c5.3-1.6,6.1-3,6.2-3.6c0-0.1,0-0.3,0-0.4c-0.2-0.6-0.9-1.3-1.5-1.8l-18-13.6c-2-1.5-4.5-2.2-7.5-2.2c-2.3,0-5,0.5-7.9,1.3
		l-10.7,3.3c-5.3,1.6-6.1,3-6.2,3.6C50,43.2,51,44,51.7,44.6z M63.5,41.6c0.2-1,1.4-1.4,1.8-1.5l3-0.9c0.6-0.2,1.2-0.3,1.7-0.3
		c0.8,0,1.5,0.2,2,0.6l15.9,12c0.8,0.6,0.8,1.2,0.7,1.5c-0.2,1-1.4,1.4-1.8,1.5l-3,0.9c-0.6,0.2-1.2,0.3-1.7,0.3
		c-0.8,0-1.5-0.2-2-0.6l-15.9-12C63.4,42.6,63.4,41.9,63.5,41.6z"/>
	<path fill="#E7F2E4" d="M12.4,56.7l18,13.6c1.4,1,3,1.7,4.9,2c0.8,0.1,1.6,0.2,2.5,0.2c2.3,0,5-0.5,7.9-1.3l10.2-3.1
		c5.3-1.6,6.1-3,6.2-3.6c0-0.1,0-0.3,0-0.4c-0.2-0.7-0.9-1.3-1.5-1.8l-4.7-3.6l-10.3,3.1l3,2.3c0.8,0.6,0.8,1.2,0.7,1.5
		c-0.2,1-1.4,1.4-1.8,1.5l-2.5,0.8c-0.6,0.2-1.2,0.3-1.7,0.3c-0.8,0-1.5-0.2-2-0.6L24.4,54.8c-0.8-0.6-0.8-1.2-0.7-1.5
		c0.2-1,1.4-1.4,1.8-1.5L28,51c0.6-0.2,1.2-0.3,1.7-0.3c0.8,0,1.5,0.2,2,0.6l4.3,3.3l10.3-3.1l-3.8-2.8c-2-1.5-4.5-2.2-7.5-2.2
		c-2.3,0-5,0.5-7.9,1.3L17,50.9c-5.3,1.6-6.1,3-6.2,3.6C10.7,55.2,11.6,56.1,12.4,56.7z"/>
	<path fill="#E7F2E4" d="M118.8,136c-1.3,0.4-2.4,1-3.4,1.9c-0.9,0.9-1.7,2-2.1,3.2c-0.5,1.3-0.7,2.7-0.7,4.3c0,2.4,0.5,4.1,1.5,5
		c1,0.9,2.5,1.1,4.5,0.4c1-0.3,1.8-0.7,2.6-1.2c0.8-0.5,1.4-1.2,2-2c0.6-0.8,1-1.7,1.3-2.8c0.3-1.1,0.4-2.2,0.4-3.6
		c0-2.4-0.5-4-1.5-4.9C122.3,135.5,120.8,135.3,118.8,136z M121.5,145.2c-0.1,0.8-0.3,1.4-0.5,2c-0.2,0.6-0.5,1.1-0.9,1.5
		c-0.4,0.4-0.8,0.7-1.3,0.9c-1,0.3-1.8,0-2.3-0.9c-0.5-0.9-0.7-2.4-0.7-4.5c0-2.1,0.2-3.6,0.7-4.8c0.5-1.1,1.2-1.8,2.2-2.1
		c0.7-0.2,1.2-0.1,1.7,0.2c0.4,0.3,0.8,1,1,1.9c0.2,0.9,0.3,2,0.3,3.4C121.6,143.6,121.6,144.4,121.5,145.2z"/>
	<polygon fill="#E7F2E4" points="159.3,36.5 131.9,15.7 121.6,18.9 149,39.6 	"/>
	<path fill="#E7F2E4" d="M93.1,144l0,0.7c0.3-0.1,0.6-0.1,0.8,0.1c0.2,0.1,0.3,0.4,0.3,0.7c0,0.2,0,0.5-0.1,0.9
		c-0.1,0.3-0.1,0.7-0.2,1.1l-2.2,7.8l-2.4-10.1l-2.3,0.7L84,157.6l-1.8-6.8c-0.2-0.7-0.3-1.3-0.3-1.7c0-0.3,0.1-0.5,0.3-0.8
		c0.2-0.2,0.4-0.4,0.8-0.5l0-0.7l-5.5,1.7l0,0.7c0.2,0,0.4,0,0.5,0.1c0.1,0.1,0.3,0.2,0.4,0.4c0.1,0.2,0.3,0.6,0.4,1.1l3.1,11
		l2.6-0.8l2.7-10.8l2.3,9.3l2.4-0.7l3.8-12.8c0.2-0.7,0.4-1.2,0.5-1.5c0.1-0.3,0.3-0.6,0.5-0.8c0.2-0.2,0.4-0.4,0.6-0.5l0-0.7
		L93.1,144z"/>
	<path fill="#E7F2E4" d="M104.1,140.4c-1.3,0.4-2.4,1-3.4,1.9c-0.9,0.9-1.7,2-2.2,3.2c-0.5,1.3-0.7,2.7-0.7,4.3c0,2.4,0.5,4.1,1.5,5
		c1,0.9,2.5,1.1,4.5,0.4c1-0.3,1.8-0.7,2.6-1.2c0.8-0.5,1.5-1.2,2-2c0.6-0.8,1-1.7,1.3-2.8c0.3-1.1,0.4-2.2,0.4-3.6
		c0-2.4-0.5-4-1.5-4.9C107.7,139.9,106.2,139.8,104.1,140.4z M106.9,149.6c-0.1,0.8-0.3,1.4-0.5,2c-0.2,0.6-0.5,1.1-0.9,1.5
		c-0.4,0.4-0.8,0.7-1.3,0.9c-1,0.3-1.8,0-2.3-0.9c-0.5-0.9-0.7-2.4-0.7-4.5c0-2.1,0.2-3.6,0.7-4.8c0.5-1.1,1.2-1.8,2.2-2.1
		c0.7-0.2,1.2-0.1,1.7,0.2c0.4,0.3,0.8,1,1,1.9c0.2,0.9,0.3,2,0.3,3.4C107,148.1,107,148.9,106.9,149.6z"/>
	<polygon fill="#E7F2E4" points="201,46.1 189.8,37.7 180.6,40.5 206,59.7 215.3,56.9 204.4,48.7 215.2,45.4 226.1,53.6 235.3,50.8 
		209.9,31.5 200.6,34.4 211.8,42.8 	"/>
	<path fill="#E7F2E4" d="M81.3,94.3l-1.9,0.6c-0.6,0.2-1.1,0.3-1.6,0.3c-0.7,0-1.4-0.2-1.9-0.6l-1.9-1.4L64.5,96l1.7,1.3
		c1.8,1.4,4.2,2.1,6.9,2.1c2.2,0,4.6-0.4,7.4-1.3l9.1-2.8c4.9-1.5,5.6-2.8,5.7-3.2c0.1-0.7-0.9-1.6-1.4-2l-5.6-4.3
		c-0.2-0.1-0.4-0.3-0.6-0.4c-1.4-0.9-3-1.5-4.9-1.7c-0.4,0-0.8-0.1-1.2-0.1c-1.9,0-4.2,0.4-6.8,1.2L70.8,86l-2.4,0.7
		c-0.6,0.2-1.1,0.3-1.6,0.3c-0.7,0-1.4-0.2-1.9-0.6l-4-3.1c-0.7-0.6-0.8-1.2-0.7-1.5c0.2-1,1.3-1.3,1.8-1.5l1.9-0.6
		c0.6-0.2,1.1-0.3,1.6-0.3c0.7,0,1.4,0.2,1.9,0.6l1.9,1.4l9.4-2.9l-1.7-1.3c-1.8-1.4-4.2-2.1-6.9-2.1c-2.1,0-4.6,0.4-7.3,1.2
		l-9.2,2.8c-4.9,1.5-5.6,2.8-5.7,3.2c-0.1,0.7,0.9,1.6,1.5,2l5.6,4.3c1.6,1.2,3.5,1.9,5.6,2.2c0.5,0.1,0.9,0.1,1.4,0.1
		c0.3,0,0.7,0,1,0c1.6-0.1,3.5-0.5,5.6-1.1l6.4-2c0.6-0.2,1.1-0.3,1.6-0.3c0.7,0,1.4,0.2,1.9,0.6l3.9,2.9c0.7,0.6,0.8,1.2,0.7,1.5
		C82.8,93.8,81.7,94.2,81.3,94.3z"/>
	<polygon fill="#E7F2E4" points="164.2,72.5 138.8,53.3 129.3,56.2 154.8,75.4 	"/>
	<polygon fill="#E7F2E4" points="189.8,64.7 167.7,48 176.1,45.5 172.7,42.9 146.7,50.9 150,53.4 158.3,50.9 180.4,67.6 	"/>
	<polygon fill="#E7F2E4" points="178.9,30.5 160.3,16.4 191.3,26.7 200,24 172.6,3.3 163.4,6.1 182.3,20.5 150.9,9.9 142.3,12.6 
		169.7,33.3 	"/>
	<polygon fill="#E7F2E4" points="144.8,78.5 119.4,59.2 108.2,62.6 116.7,77.3 92.7,67.4 82.1,70.6 107.5,89.9 115.6,87.4 
		93.6,70.7 117.2,80.6 123.7,78.6 115.7,65.1 136.7,81 	"/>
	<path fill="#E7F2E4" d="M220.7,105l0,0.7c0.3,0,0.5,0,0.6,0c0.1,0,0.2,0.1,0.3,0.2c0.1,0.1,0.1,0.2,0.2,0.4c0,0.2,0.1,0.5,0.1,1
		l0,2c0,2,0,3.8,0.1,5.5l-0.2,0c-0.3-0.5-5.5-8.5-5.5-8.5l-4.1,1.3l0,0.7c0.4,0,0.6,0,0.8,0.1c0.1,0.1,0.2,0.2,0.3,0.4
		c0,0.2,0.1,0.6,0.1,1.1l0,9.2c0,0.3,0,0.6,0,0.8c0,0.2-0.1,0.4-0.1,0.6c-0.1,0.2-0.2,0.3-0.3,0.4c-0.1,0.1-0.3,0.3-0.6,0.4l0,0.7
		l3.9-1.2l0-0.7c-0.4,0-0.6,0-0.8-0.1c-0.1-0.1-0.2-0.2-0.3-0.4c-0.1-0.2-0.1-0.6-0.1-1.1l0-3.4c0-1.7,0-3.3-0.1-4.8l0.1,0
		c0.3,0.6,6,9.1,6,9.1l2.6-0.8l0-11.8c0-0.4,0-0.8,0.1-1c0-0.2,0.1-0.4,0.2-0.5c0.1-0.1,0.2-0.2,0.3-0.3c0.1-0.1,0.3-0.2,0.6-0.4
		l0-0.7L220.7,105z"/>
	<path fill="#E7F2E4" d="M167,121.2c-1.3,0.4-2.4,1-3.4,1.9c-1,0.9-1.7,2-2.2,3.2c-0.5,1.3-0.7,2.7-0.7,4.3c0,2.4,0.5,4.1,1.5,5
		c1,0.9,2.5,1.1,4.5,0.4c1-0.3,1.8-0.7,2.6-1.2c0.8-0.5,1.5-1.2,2-2c0.6-0.8,1-1.7,1.3-2.8c0.3-1.1,0.4-2.2,0.4-3.6
		c0-2.4-0.5-4-1.5-4.9C170.6,120.7,169.1,120.6,167,121.2z M169.8,130.4c-0.1,0.8-0.3,1.4-0.5,2c-0.2,0.6-0.5,1.1-0.9,1.5
		c-0.4,0.4-0.8,0.7-1.3,0.9c-1,0.3-1.8,0-2.3-0.9c-0.5-0.9-0.7-2.4-0.7-4.5c0-2.1,0.2-3.6,0.7-4.8c0.5-1.1,1.2-1.8,2.2-2.1
		c0.7-0.2,1.2-0.1,1.7,0.2c0.4,0.3,0.8,1,1,1.9c0.2,0.9,0.3,2,0.3,3.4C169.9,128.8,169.9,129.7,169.8,130.4z"/>
	<path fill="#E7F2E4" d="M209.5,122c-0.1,0-0.3-0.1-0.3-0.1c-0.1-0.1-0.1-0.2-0.2-0.3c0-0.1-0.1-0.3-0.1-0.5c0-0.2,0-0.4,0-0.7
		l0-9.2c0-0.4,0-0.7,0-0.9c0-0.2,0.1-0.4,0.1-0.5c0.1-0.1,0.2-0.3,0.3-0.4c0.1-0.1,0.3-0.3,0.6-0.4l0-0.7l-5.4,1.6l0,0.7
		c0.3,0,0.5,0,0.6,0c0.1,0,0.3,0.1,0.3,0.2c0.1,0.1,0.1,0.3,0.1,0.5c0,0.2,0,0.5,0,0.8l0,9.2c0,0.3,0,0.6,0,0.9
		c0,0.2-0.1,0.4-0.1,0.6c-0.1,0.2-0.2,0.3-0.3,0.4c-0.1,0.1-0.3,0.3-0.6,0.4l0,0.7l5.4-1.6l0-0.7C209.8,122,209.6,122,209.5,122z"/>
	<path fill="#E7F2E4" d="M187,128.5c-0.3-0.2-0.6-0.6-0.9-1.2l-0.7-1.2c-0.3-0.5-0.6-0.9-0.9-1.2c-0.3-0.3-0.7-0.5-1.3-0.5v-0.1
		c0.7-0.5,1.2-1,1.6-1.4c0.4-0.4,0.7-1,1-1.5c0.2-0.6,0.4-1.2,0.4-1.9c0-0.5-0.1-1-0.2-1.3c-0.1-0.4-0.3-0.7-0.6-0.9
		c-0.2-0.2-0.5-0.4-0.9-0.5c-0.4-0.1-0.9-0.1-1.5-0.1c-0.6,0.1-1.2,0.2-2,0.5l-6,1.8l0,0.7c0.3,0,0.5,0,0.6,0.1
		c0.1,0,0.3,0.1,0.3,0.2c0.1,0.1,0.1,0.3,0.1,0.5c0,0.2,0,0.5,0,0.8l0,9.2c0,0.3,0,0.6,0,0.9c0,0.2-0.1,0.4-0.1,0.6
		c-0.1,0.2-0.2,0.3-0.3,0.4c-0.1,0.1-0.3,0.3-0.6,0.4l0,0.7l5.4-1.6l0-0.7c-0.4,0-0.6,0-0.8-0.1c-0.1-0.1-0.2-0.2-0.3-0.4
		c0-0.2-0.1-0.6-0.1-1.1l0-3.4l0.6-0.2c0.4-0.1,0.7-0.2,0.8-0.1c0.2,0,0.4,0.1,0.5,0.3c0.2,0.2,0.4,0.5,0.6,1l0.8,1.6
		c0.5,1,0.9,1.7,1.3,2.1l3.9-1.2l0-0.7C187.6,128.8,187.3,128.7,187,128.5z M183,121.8c-0.1,0.4-0.2,0.8-0.4,1.1
		c-0.2,0.3-0.5,0.6-0.8,0.9c-0.4,0.3-0.8,0.5-1.4,0.6l-1,0.3l0-5.9c0.2-0.1,0.6-0.2,1.2-0.4c0.9-0.3,1.5-0.2,1.9,0.1
		c0.4,0.3,0.7,1,0.7,2C183.1,121,183.1,121.4,183,121.8z"/>
	<path fill="#E7F2E4" d="M233,109l0,0.7c0.3,0,0.5,0,0.6,0.1c0.1,0,0.2,0.1,0.3,0.2c0.1,0.1,0.1,0.3,0.2,0.5c0,0.2,0,0.6,0,1.1
		l0,0.4c0,0.8-0.1,1.4-0.4,1.9c-0.3,0.5-0.7,0.8-1.3,1c-0.6,0.2-1.1,0.1-1.5-0.3c-0.4-0.4-0.7-1-0.9-1.8c-0.2-0.8-0.3-1.9-0.3-3.1
		c0-1.4,0.1-2.7,0.4-3.7c0.3-1,0.7-1.8,1.2-2.4c0.5-0.6,1.1-1,1.8-1.2c0.5-0.2,0.9-0.2,1.2-0.1c0.3,0.1,0.6,0.2,0.8,0.5
		c0.2,0.3,0.4,0.7,0.5,1.2l1.4-0.4l0-3c-1.2,0-2.6,0.2-4.1,0.7c-0.9,0.3-1.7,0.7-2.5,1.2c-0.8,0.5-1.5,1.2-2.1,2
		c-0.6,0.8-1.1,1.8-1.4,2.8c-0.3,1.1-0.5,2.3-0.5,3.6c0,2.4,0.5,4.1,1.5,5c1,0.9,2.5,1.1,4.5,0.5c1-0.3,2-0.9,2.8-1.6l0.7,0.5
		l1.5-0.8l0-4c0-0.4,0-0.7,0.1-1c0-0.2,0.1-0.4,0.3-0.6c0.1-0.2,0.3-0.4,0.7-0.6l0-0.7L233,109z"/>
	<path fill="#E7F2E4" d="M156,124.7l0,0.7c0.4-0.1,0.6-0.1,0.8,0.1c0.2,0.1,0.3,0.4,0.3,0.7c0,0.2,0,0.5-0.1,0.9
		c-0.1,0.3-0.1,0.7-0.2,1.1l-2.2,7.8l-2.4-10.1l-2.3,0.7l-2.9,11.7l-1.8-6.8c-0.2-0.7-0.3-1.3-0.3-1.7c0-0.3,0.1-0.5,0.3-0.8
		c0.2-0.2,0.4-0.4,0.8-0.5l0-0.7l-5.5,1.7l0,0.7c0.2,0,0.4,0,0.5,0.1c0.1,0.1,0.3,0.2,0.4,0.4c0.1,0.2,0.3,0.6,0.4,1.1l3.1,11
		l2.6-0.8l2.7-10.8l2.3,9.3l2.4-0.7l3.8-12.8c0.2-0.7,0.4-1.2,0.5-1.5c0.1-0.3,0.3-0.6,0.5-0.8c0.2-0.2,0.4-0.4,0.6-0.5l0-0.7
		L156,124.7z"/>
	<path fill="#E7F2E4" d="M202.5,124.1c-0.1,0-0.3-0.1-0.4-0.2c-0.1-0.1-0.3-0.2-0.5-0.4c-0.2-0.2-0.4-0.5-0.7-0.8l-3.6-4.6l3.1-4.5
		c0.4-0.5,0.7-1,0.9-1.3c0.2-0.3,0.5-0.5,0.6-0.7c0.2-0.2,0.4-0.3,0.7-0.4l0-0.7l-5.2,1.6l0,0.7c0.3-0.1,0.5-0.1,0.7,0
		c0.2,0.1,0.2,0.3,0.2,0.5c0,0.2,0,0.5-0.1,0.7c-0.1,0.3-0.3,0.6-0.5,1.1c-0.2,0.4-0.6,1.1-1.2,1.9c-0.6,0.9-0.9,1.4-1.1,1.6
		c-0.2,0.2-0.4,0.4-0.6,0.6c-0.2,0.1-0.4,0.2-0.8,0.3l-0.2,0.1l0-3.8c0-0.4,0-0.7,0-0.9c0-0.2,0.1-0.4,0.1-0.5
		c0.1-0.1,0.2-0.3,0.3-0.4c0.1-0.1,0.3-0.3,0.6-0.4l0-0.7l-5.4,1.6l0,0.7c0.3,0,0.5,0,0.6,0.1c0.1,0,0.3,0.1,0.3,0.2
		c0.1,0.1,0.1,0.3,0.1,0.5c0,0.2,0,0.5,0,0.8l0,9.2c0,0.3,0,0.6,0,0.9c0,0.2-0.1,0.4-0.1,0.6c-0.1,0.2-0.2,0.3-0.3,0.4
		c-0.1,0.1-0.3,0.3-0.6,0.4l0,0.7l5.4-1.6l0-0.7c-0.2,0-0.4,0-0.5,0c-0.1,0-0.2-0.1-0.3-0.1c-0.1-0.1-0.1-0.2-0.2-0.3
		c0-0.1-0.1-0.3-0.1-0.5c0-0.2,0-0.4,0-0.7l0-4.2l0.2-0.1c0.3-0.1,0.4-0.1,0.6-0.1c0.1,0,0.3,0.1,0.4,0.2c0.1,0.1,0.3,0.3,0.5,0.6
		l1.6,2c0.4,0.5,0.6,0.8,0.7,1c0.1,0.2,0.2,0.3,0.2,0.4s0,0.2,0,0.3c0,0.1,0,0.3-0.1,0.4c-0.1,0.1-0.2,0.2-0.5,0.3l0,0.7l5.6-1.7
		l0-0.7C202.9,124.2,202.7,124.2,202.5,124.1z"/>
	<path fill="#E7F2E4" d="M71.8,130.4c9.3-2.8,161.9-49.5,168.2-51.4c0,0-1.7-1.2-2.6-1.9l0,0v0.1l-11.6,3.5l-8.5-6.4l0,9l-11.6,3.5
		l-13.9-10.5l0,14.8l-11.8,3.6l-13.9-10.5l0,14.7l-11.8,3.6l-7.6-5.8l0,8.1l-10.4,3.2l-11.3-8.6l0,5.7l-7.5,2.3l0,6.3l-10.5,3.2
		l-11-8.3c0,0.5,0,1,0,1.5c0,2.4,0,4.9,0,7.3c0,3.3-4.7,4.3-7.2,5.1c-2.8,0.8-9.5,2.9-10.1,3c-1.9,0.5-3.8,0.8-5.7,0.8
		c-2.8,0-5.5-0.7-7.9-2.5c-0.6-0.5-2.9-2-3-2.3c-0.2-0.3,0-1.2,0-1.6c0-0.6,0-1.3,0-1.9c-0.1,0-0.2,0-0.3,0c-0.1,0-0.1,0-0.2,0
		c-0.1,0-0.3,0-0.4,0c-0.2,0-0.3,0-0.5,0c-0.2,0-0.3,0-0.5,0c-0.1,0-0.1,0-0.2,0c-0.1,0-0.2,0-0.4-0.1c-0.2,0-0.4-0.1-0.6-0.1
		c-0.2,0-0.4-0.1-0.6-0.1c-0.2-0.1-0.5-0.1-0.7-0.2c-0.3-0.1-0.6-0.2-0.9-0.3c-1-0.4-1.9-0.9-2.7-1.6l-5.6-4.3
		c-0.5-0.4-0.8-0.7-1.1-1c-0.5-0.6-0.7-1.1-0.7-1.6l0-10.8c-0.3,0.1-0.5,0.2-0.8,0.2c-2.6,0.8-5.4,1.4-8.1,1.4c-0.6,0-1.2,0-1.8-0.1
		c-0.6-0.1-1.2-0.2-1.8-0.3c-2-0.5-3.6-1.4-5.2-2.6c-1.4-1-15.7-11.9-17.2-13c-1.2-0.9-2-1.9-2-3.3c-0.8,0.2-4,1.2-4,1.2l64,48.5
		c-0.6,1.5-0.8,3.2-0.9,4.8L2.4,84.3v2.5l66.4,50.3l0.8,0.6l1.2-0.3l172.3-52.7v-2.1L70.8,135.2C70.9,133.3,71.3,131.7,71.8,130.4z"
		/>
	<path fill="#E7F2E4" d="M138.4,132.7c-0.4-0.4-0.8-0.8-1.4-1c-0.6-0.2-1.3-0.3-2-0.2c-0.8,0-1.7,0.2-2.9,0.6l-5.3,1.6l0,0.7
		c0.3,0,0.5,0,0.6,0.1c0.1,0,0.3,0.1,0.3,0.2c0.1,0.1,0.1,0.3,0.1,0.5c0,0.2,0,0.5,0,0.8l0,9.2c0,0.3,0,0.6,0,0.9
		c0,0.2-0.1,0.4-0.1,0.6c-0.1,0.2-0.2,0.3-0.3,0.4c-0.1,0.1-0.3,0.3-0.6,0.4l0,0.7l4.6-1.4c1.1-0.3,2-0.7,2.7-1
		c0.8-0.4,1.6-0.9,2.2-1.5c0.6-0.6,1.2-1.2,1.6-1.9c0.5-0.8,0.9-1.6,1.1-2.6c0.3-0.9,0.4-2,0.4-3.1c0-0.9-0.1-1.7-0.3-2.4
		C139.1,133.7,138.8,133.1,138.4,132.7z M135.9,141.2c-0.2,0.9-0.6,1.6-1,2.2c-0.3,0.4-0.6,0.7-1,1c-0.5,0.4-1.1,0.7-1.9,0.9
		c-0.5,0.2-0.8,0.2-0.9,0.3l0-12c0.2-0.1,0.5-0.2,0.9-0.3c0.9-0.3,1.6-0.3,2.3,0c0.6,0.2,1.1,0.7,1.5,1.5c0.3,0.8,0.5,1.9,0.5,3.2
		C136.2,139.2,136.1,140.3,135.9,141.2z"/>
</g>
<g id="gold_1_">
	<path fill="#C8BF0F" d="M168.6,122.7c-0.4-0.4-1-0.4-1.7-0.2c-1,0.3-1.7,1-2.2,2.1c-0.5,1.1-0.7,2.7-0.7,4.8c0,2.1,0.3,3.7,0.7,4.5
		c0.5,0.9,1.2,1.2,2.3,0.9c0.5-0.2,1-0.5,1.3-0.9c0.4-0.4,0.7-0.9,0.9-1.5c0.2-0.6,0.4-1.3,0.5-2c0.1-0.7,0.2-1.6,0.2-2.4
		c0-1.4-0.1-2.6-0.3-3.4C169.4,123.7,169,123,168.6,122.7z"/>
	<path fill="#C8BF0F" d="M105.7,141.9c-0.4-0.4-1-0.4-1.7-0.2c-1,0.3-1.7,1-2.2,2.1c-0.5,1.1-0.7,2.7-0.7,4.8c0,2.1,0.3,3.7,0.7,4.5
		c0.5,0.9,1.2,1.2,2.3,0.9c0.5-0.2,1-0.4,1.3-0.9c0.4-0.4,0.7-0.9,0.9-1.5c0.2-0.6,0.4-1.3,0.5-2c0.1-0.7,0.1-1.6,0.1-2.4
		c0-1.4-0.1-2.6-0.3-3.4C106.5,142.9,106.2,142.3,105.7,141.9z"/>
	<path fill="#C8BF0F" d="M120.3,137.4c-0.4-0.4-1-0.4-1.7-0.2c-1,0.3-1.7,1-2.2,2.1c-0.5,1.1-0.7,2.7-0.7,4.8c0,2.1,0.3,3.7,0.7,4.5
		c0.5,0.9,1.3,1.2,2.3,0.9c0.5-0.2,1-0.4,1.3-0.9c0.4-0.4,0.7-0.9,0.9-1.5c0.2-0.6,0.4-1.3,0.5-2c0.1-0.7,0.1-1.6,0.1-2.4
		c0-1.4-0.1-2.6-0.3-3.4C121.1,138.4,120.8,137.8,120.3,137.4z"/>
	<path fill="#C8BF0F" d="M180.5,118.5c-0.6,0.2-1,0.3-1.2,0.4l0,5.9l1-0.3c0.5-0.2,1-0.4,1.4-0.6c0.4-0.3,0.6-0.6,0.8-0.9
		c0.2-0.3,0.3-0.7,0.4-1.1c0.1-0.4,0.1-0.8,0.1-1.2c0-1-0.2-1.6-0.7-2C182,118.3,181.4,118.2,180.5,118.5z"/>
	<path fill="#C8BF0F" d="M134.2,133.3c-0.6-0.2-1.4-0.2-2.3,0c-0.4,0.1-0.7,0.2-0.9,0.3l0,12c0.1,0,0.4-0.1,0.9-0.3
		c0.7-0.2,1.4-0.5,1.9-0.9c0.4-0.3,0.7-0.6,1-1c0.5-0.6,0.8-1.4,1-2.2c0.2-0.9,0.4-2,0.4-3.2c0-1.3-0.2-2.4-0.5-3.2
		C135.4,134,134.9,133.5,134.2,133.3z"/>
	<path fill="#C8BF0F" d="M245.4,82.2L245.4,82.2L245.4,82.2c0-1-0.4-1.9-0.9-2.6v0l0,0c-0.3-0.4-0.7-0.8-1.1-1.1c0,0,0,0,0,0l-4-3
		l0-25.3l-29-21.9l-6.3,1.9v-6.7L173.2,0l-13.9,4.3l0,5.3L151,6.8l-12.8,3.9l0,6l-5.7-4.3l-15,4.6l0,20.3L98.4,22.9l-15,4.6l0,6.1
		c-2.4-1.5-5.2-2.3-8.5-2.3c-2.6,0-5.6,0.5-8.8,1.5L55.5,36c-3.6,1.1-8.3,3-8.3,6.6h0l0,5.9l-2.9-2.2c-1.6-1.2-3.4-2-5.4-2.5
		c-1.2-0.3-2.5-0.4-3.8-0.4c-1.3,0-2.7,0.1-4.2,0.4c-1.4,0.2-3,0.6-4.6,1.1L16.1,48c-3.6,1.1-8.3,3-8.3,6.6h0l0,23.4
		c-1.5,0.5-3,0.9-4.6,1.4C1.5,79.8,0,81,0,83l0,44.6c0,0,0.2,0.1,0,0c0,1.5,0.9,2.7,2.1,3.6c4.5,3.6,68.2,51.6,68.2,51.6
		c0,0,0,0,0,0c0,0,0,0,0,0c0,0,0.1,0.1,0.1,0.1c0,0,172.1-52.6,172.1-52.6c1.6-0.5,3-1.8,3-3.5l0,0c0,0,0,0,0,0L245.4,82.2z
		 M209.9,31.5l25.4,19.3l-9.2,2.8l-10.8-8.2l-10.8,3.3l10.8,8.2l-9.2,2.8l-25.4-19.3l9.2-2.8l11.2,8.5l10.8-3.3l-11.2-8.5
		L209.9,31.5z M123.7,78.6l-6.5,2l-23.6-9.9l22,16.7l-8.2,2.5L82.1,70.6l10.7-3.3l24,9.9l-8.5-14.7l11.2-3.4l25.4,19.3l-8.1,2.5
		l-21-15.9L123.7,78.6z M82.3,91.3l-3.9-2.9c-0.5-0.4-1.2-0.6-1.9-0.6c-0.5,0-1,0.1-1.6,0.3l-6.4,2c-2.1,0.6-3.9,1-5.6,1.1
		c-0.3,0-0.7,0-1,0c-0.5,0-1,0-1.4-0.1c-2.1-0.3-4-1-5.6-2.2l-5.6-4.3c-0.6-0.5-1.6-1.3-1.5-2c0.1-0.5,0.8-1.8,5.7-3.2l9.2-2.8
		c2.7-0.8,5.1-1.2,7.3-1.2c2.8,0,5.1,0.7,6.9,2.1l1.7,1.3l-9.4,2.9l-1.9-1.4c-0.5-0.4-1.2-0.6-1.9-0.6c-0.5,0-1,0.1-1.6,0.3
		l-1.9,0.6c-0.4,0.1-1.6,0.5-1.8,1.5c-0.1,0.3,0,0.9,0.7,1.5l4,3.1c0.5,0.4,1.2,0.6,1.9,0.6c0.5,0,1-0.1,1.6-0.3l2.4-0.7l3.9-1.2
		c2.6-0.8,4.9-1.2,6.8-1.2c0.4,0,0.9,0,1.2,0.1c1.8,0.2,3.5,0.8,4.9,1.7c0.2,0.1,0.4,0.3,0.6,0.4l5.6,4.3c0.6,0.5,1.6,1.3,1.4,2
		c-0.1,0.5-0.8,1.8-5.7,3.2l-9.1,2.8c-2.7,0.8-5.2,1.3-7.4,1.3c-2.8,0-5.1-0.7-6.9-2.1L64.5,96l9.4-2.9l1.9,1.4
		c0.5,0.4,1.2,0.6,1.9,0.6c0.5,0,1-0.1,1.6-0.3l1.9-0.6c0.4-0.1,1.6-0.5,1.8-1.5C83.1,92.5,83.1,91.9,82.3,91.3z M129.3,56.2
		l9.4-2.9l25.4,19.3l-9.4,2.9L129.3,56.2z M158.3,50.9l-8.3,2.5l-3.4-2.6l26-8l3.4,2.6l-8.3,2.5l22,16.7l-9.4,2.9L158.3,50.9z
		 M150.9,9.9l31.4,10.5L163.4,6.1l9.2-2.8L200,24l-8.7,2.6l-31.1-10.3l18.6,14.1l-9.2,2.8l-27.4-20.7L150.9,9.9z M131.9,15.7
		l27.4,20.7L149,39.6l-27.4-20.7L131.9,15.7z M97.8,26.2L121.4,44l14.3-4.4l3.8,2.9L114.9,50L87.5,29.3L97.8,26.2z M50.2,42.4
		c0.1-0.5,0.9-1.9,6.2-3.6L67,35.6c2.9-0.9,5.6-1.3,7.9-1.3c3,0,5.5,0.8,7.5,2.2l18,13.6c0.6,0.5,1.4,1.2,1.5,1.8
		c0,0.1,0.1,0.3,0,0.4c-0.1,0.5-0.9,1.9-6.2,3.6l-10.7,3.3c-2.9,0.9-5.6,1.3-7.9,1.3c-0.9,0-1.8-0.1-2.6-0.2c-1.9-0.3-3.5-1-4.8-2
		l-18-13.6C51,44,50,43.2,50.2,42.4z M10.8,54.4c0.1-0.5,0.9-1.9,6.2-3.6l10.2-3.1c2.9-0.9,5.6-1.3,7.9-1.3c3,0,5.5,0.8,7.5,2.2
		l3.8,2.8L36,54.6l-4.3-3.3c-0.6-0.4-1.2-0.6-2-0.6c-0.5,0-1.1,0.1-1.7,0.3l-2.5,0.8c-0.5,0.1-1.7,0.5-1.8,1.5c-0.1,0.3,0,1,0.7,1.5
		l16.8,12.7c0.6,0.4,1.2,0.6,2,0.6c0.5,0,1.1-0.1,1.7-0.3l2.5-0.8c0.5-0.1,1.7-0.5,1.8-1.5c0.1-0.3,0-1-0.7-1.5l-3-2.3l10.3-3.1
		l4.7,3.6c0.7,0.5,1.4,1.2,1.5,1.8c0,0.1,0.1,0.3,0,0.4c-0.1,0.5-0.9,1.9-6.2,3.6l-10.2,3.1c-2.9,0.9-5.6,1.3-7.9,1.3
		c-0.9,0-1.7-0.1-2.5-0.2c-1.9-0.3-3.5-1-4.9-2l-18-13.6C11.6,56.1,10.7,55.2,10.8,54.4z M96.7,143.9c-0.2,0.2-0.3,0.5-0.5,0.8
		c-0.1,0.3-0.3,0.8-0.5,1.5l-3.8,12.8l-2.4,0.7l-2.3-9.3l-2.7,10.8l-2.6,0.8l-3.1-11c-0.1-0.5-0.3-0.9-0.4-1.1
		c-0.1-0.2-0.2-0.3-0.4-0.4c-0.1-0.1-0.3-0.1-0.5-0.1l0-0.7l5.5-1.7l0,0.7c-0.4,0.2-0.6,0.3-0.8,0.5c-0.2,0.2-0.3,0.5-0.3,0.8
		c0,0.4,0.1,0.9,0.3,1.7l1.8,6.8l2.9-11.7l2.3-0.7l2.4,10.1l2.2-7.8c0.1-0.4,0.2-0.7,0.2-1.1c0.1-0.3,0.1-0.6,0.1-0.9
		c0-0.4-0.1-0.6-0.3-0.7c-0.2-0.1-0.4-0.1-0.8-0.1l0-0.7l4.3-1.3l0,0.7C97.1,143.5,96.9,143.7,96.7,143.9z M109.8,149.4
		c-0.3,1-0.7,2-1.3,2.8c-0.6,0.8-1.2,1.4-2,2c-0.8,0.5-1.6,0.9-2.6,1.2c-2,0.6-3.5,0.5-4.5-0.4c-1-0.9-1.5-2.6-1.5-5
		c0-1.6,0.2-3,0.7-4.3c0.5-1.3,1.2-2.4,2.2-3.2c1-0.9,2.1-1.5,3.4-1.9c2-0.6,3.6-0.5,4.6,0.4c1,0.9,1.5,2.6,1.5,4.9
		C110.3,147.1,110.1,148.3,109.8,149.4z M124.4,144.9c-0.3,1-0.7,2-1.3,2.8c-0.6,0.8-1.2,1.4-2,2c-0.8,0.5-1.7,0.9-2.6,1.2
		c-2,0.6-3.5,0.5-4.5-0.4c-1-0.9-1.5-2.6-1.5-5c0-1.6,0.2-3,0.7-4.3c0.5-1.3,1.2-2.3,2.1-3.2c1-0.9,2.1-1.5,3.4-1.9
		c2-0.6,3.6-0.5,4.6,0.4c1,0.9,1.5,2.6,1.5,4.9C124.9,142.7,124.8,143.8,124.4,144.9z M139.2,139.8c-0.3,1-0.6,1.8-1.1,2.6
		c-0.4,0.7-1,1.3-1.6,1.9c-0.6,0.6-1.4,1-2.2,1.5c-0.7,0.3-1.6,0.7-2.7,1l-4.6,1.4l0-0.7c0.3-0.2,0.4-0.3,0.6-0.4
		c0.1-0.1,0.3-0.3,0.3-0.4c0.1-0.2,0.1-0.4,0.1-0.6c0-0.2,0-0.5,0-0.9l0-9.2c0-0.3,0-0.6,0-0.8c0-0.2-0.1-0.4-0.1-0.5
		c-0.1-0.1-0.2-0.2-0.3-0.2c-0.1-0.1-0.4-0.1-0.6-0.1l0-0.7l5.3-1.6c1.1-0.3,2.1-0.5,2.9-0.6c0.8,0,1.4,0,2,0.2
		c0.6,0.2,1.1,0.5,1.4,1c0.4,0.4,0.6,1,0.8,1.7c0.2,0.7,0.3,1.5,0.3,2.4C139.5,137.8,139.4,138.8,139.2,139.8z M159.6,124.6
		c-0.2,0.2-0.3,0.5-0.5,0.8c-0.1,0.3-0.3,0.8-0.5,1.5l-3.8,12.8l-2.4,0.7l-2.3-9.3l-2.7,10.8l-2.6,0.8l-3.1-11
		c-0.1-0.5-0.3-0.9-0.4-1.1c-0.1-0.2-0.2-0.3-0.4-0.4c-0.1-0.1-0.3-0.1-0.5-0.1l0-0.7l5.5-1.7l0,0.7c-0.4,0.2-0.6,0.3-0.8,0.5
		c-0.2,0.2-0.3,0.5-0.3,0.8c0,0.4,0.1,0.9,0.3,1.7l1.8,6.8l2.9-11.7l2.3-0.7l2.4,10.1l2.2-7.8c0.1-0.4,0.2-0.7,0.2-1.1
		c0.1-0.3,0.1-0.6,0.1-0.9c0-0.4-0.1-0.6-0.3-0.7c-0.2-0.1-0.4-0.1-0.8-0.1l0-0.7l4.3-1.3l0,0.7C160,124.3,159.8,124.4,159.6,124.6z
		 M172.7,130.1c-0.3,1-0.7,2-1.3,2.8c-0.6,0.8-1.2,1.4-2,2c-0.8,0.5-1.6,0.9-2.6,1.2c-2,0.6-3.5,0.5-4.5-0.4c-1-0.9-1.5-2.6-1.5-5
		c0-1.6,0.2-3,0.7-4.3c0.5-1.3,1.2-2.3,2.2-3.2c0.9-0.9,2.1-1.5,3.4-1.9c2-0.6,3.6-0.5,4.6,0.4c1,0.9,1.5,2.6,1.5,4.9
		C173.2,127.9,173,129.1,172.7,130.1z M184.1,130.7c-0.4-0.4-0.8-1.1-1.3-2.1l-0.8-1.6c-0.2-0.5-0.5-0.8-0.6-1
		c-0.2-0.2-0.3-0.3-0.5-0.3c-0.2,0-0.5,0-0.8,0.1l-0.6,0.2l0,3.4c0,0.5,0,0.9,0.1,1.1c0.1,0.2,0.1,0.3,0.3,0.4
		c0.1,0.1,0.4,0.1,0.8,0.1l0,0.7l-5.4,1.6l0-0.7c0.3-0.2,0.5-0.3,0.6-0.4c0.1-0.1,0.3-0.3,0.3-0.4c0.1-0.2,0.1-0.4,0.1-0.6
		c0-0.2,0-0.5,0-0.9l0-9.2c0-0.3,0-0.6,0-0.8c0-0.2-0.1-0.4-0.1-0.5c-0.1-0.1-0.2-0.2-0.3-0.2c-0.1-0.1-0.3-0.1-0.6-0.1l0-0.7l6-1.8
		c0.8-0.2,1.5-0.4,2-0.5c0.6-0.1,1.1,0,1.5,0.1c0.3,0.1,0.6,0.2,0.9,0.5c0.3,0.2,0.4,0.5,0.6,0.9c0.1,0.4,0.2,0.8,0.2,1.3
		c0,0.7-0.1,1.3-0.4,1.9c-0.2,0.6-0.6,1.1-1,1.5c-0.4,0.5-0.9,0.9-1.6,1.4v0.1c0.5,0.1,0.9,0.2,1.3,0.5c0.3,0.3,0.6,0.7,0.9,1.2
		l0.7,1.2c0.3,0.6,0.6,1,0.9,1.2c0.3,0.2,0.6,0.3,1,0.3l0,0.7L184.1,130.7z M197.5,126.5l0-0.7c0.2-0.1,0.4-0.2,0.5-0.3
		c0.1-0.1,0.1-0.2,0.1-0.4c0-0.1,0-0.2,0-0.3s-0.1-0.2-0.2-0.4c-0.1-0.2-0.4-0.5-0.7-1l-1.6-2c-0.2-0.2-0.4-0.4-0.5-0.6
		c-0.1-0.1-0.3-0.2-0.4-0.2c-0.1,0-0.3,0-0.6,0.1l-0.2,0.1l0,4.2c0,0.3,0,0.5,0,0.7c0,0.2,0,0.4,0.1,0.5c0,0.1,0.1,0.2,0.2,0.3
		c0.1,0.1,0.2,0.1,0.3,0.1c0.1,0,0.3,0,0.5,0l0,0.7l-5.4,1.6l0-0.7c0.3-0.2,0.5-0.3,0.6-0.4c0.1-0.1,0.3-0.3,0.3-0.4
		c0.1-0.2,0.1-0.4,0.1-0.6c0-0.2,0-0.5,0-0.9l0-9.2c0-0.3,0-0.6,0-0.8c0-0.2-0.1-0.4-0.1-0.5c-0.1-0.1-0.2-0.2-0.3-0.2
		c-0.1-0.1-0.4-0.1-0.6-0.1l0-0.7l5.4-1.6l0,0.7c-0.3,0.2-0.5,0.3-0.6,0.4c-0.1,0.1-0.2,0.3-0.3,0.4c-0.1,0.1-0.1,0.3-0.1,0.5
		c0,0.2,0,0.5,0,0.9l0,3.8l0.2-0.1c0.3-0.1,0.6-0.2,0.8-0.3c0.2-0.1,0.4-0.3,0.6-0.6c0.2-0.2,0.6-0.8,1.1-1.6c0.6-0.8,1-1.5,1.2-1.9
		c0.3-0.4,0.4-0.8,0.5-1.1c0.1-0.3,0.1-0.5,0.1-0.7c0-0.3-0.1-0.4-0.2-0.5c-0.2-0.1-0.4-0.1-0.7,0l0-0.7l5.2-1.6l0,0.7
		c-0.3,0.1-0.5,0.3-0.7,0.4c-0.2,0.2-0.4,0.4-0.6,0.7c-0.2,0.3-0.5,0.7-0.9,1.3l-3.1,4.5l3.6,4.6c0.3,0.4,0.5,0.6,0.7,0.8
		c0.2,0.2,0.3,0.3,0.5,0.4c0.1,0.1,0.3,0.2,0.4,0.2c0.1,0,0.3,0,0.5,0l0,0.7L197.5,126.5z M204.6,124.4l0-0.7
		c0.3-0.2,0.4-0.3,0.6-0.4c0.1-0.1,0.3-0.3,0.3-0.4c0.1-0.2,0.1-0.4,0.1-0.6c0-0.2,0-0.5,0-0.9l0-9.2c0-0.3,0-0.6,0-0.8
		c0-0.2-0.1-0.4-0.1-0.5c-0.1-0.1-0.2-0.2-0.3-0.2c-0.1,0-0.3-0.1-0.6,0l0-0.7l5.4-1.6l0,0.7c-0.3,0.2-0.5,0.3-0.6,0.4
		c-0.1,0.1-0.2,0.3-0.3,0.4c-0.1,0.2-0.1,0.3-0.1,0.5c0,0.2,0,0.5,0,0.9l0,9.2c0,0.3,0,0.5,0,0.7c0,0.2,0,0.4,0.1,0.5
		c0,0.1,0.1,0.2,0.2,0.3c0.1,0.1,0.2,0.1,0.3,0.1c0.1,0,0.3,0,0.5,0l0,0.7L204.6,124.4z M224,104.9c-0.1,0.1-0.2,0.2-0.3,0.3
		c-0.1,0.1-0.1,0.3-0.2,0.5c0,0.2-0.1,0.6-0.1,1l0,11.8l-2.6,0.8c0,0-5.7-8.5-6-9.1l-0.1,0c0.1,1.5,0.1,3.1,0.1,4.8l0,3.4
		c0,0.5,0,0.9,0.1,1.1c0.1,0.2,0.1,0.3,0.3,0.4c0.1,0.1,0.4,0.1,0.8,0.1l0,0.7l-3.9,1.2l0-0.7c0.3-0.2,0.5-0.3,0.6-0.4
		c0.1-0.1,0.3-0.3,0.3-0.4c0.1-0.2,0.1-0.4,0.1-0.6c0-0.2,0-0.5,0-0.8l0-9.2c0-0.5,0-0.9-0.1-1.1c0-0.2-0.1-0.3-0.3-0.4
		c-0.1-0.1-0.4-0.1-0.8-0.1l0-0.7l4.1-1.3c0,0,5.2,8,5.5,8.5l0.2,0c-0.1-1.7-0.1-3.5-0.1-5.5l0-2c0-0.5,0-0.8-0.1-1
		c0-0.2-0.1-0.3-0.2-0.4c-0.1-0.1-0.2-0.1-0.3-0.2c-0.1,0-0.3-0.1-0.6,0l0-0.7l3.9-1.2l0,0.7C224.3,104.7,224.1,104.8,224,104.9z
		 M237.5,108.7c-0.1,0.2-0.2,0.4-0.3,0.6c0,0.2-0.1,0.6-0.1,1l0,4l-1.5,0.8l-0.7-0.5c-0.8,0.8-1.7,1.3-2.8,1.6
		c-2,0.6-3.5,0.5-4.5-0.5c-1-0.9-1.5-2.6-1.5-5c0-1.3,0.2-2.5,0.5-3.6c0.3-1.1,0.8-2,1.4-2.8c0.6-0.8,1.3-1.5,2.1-2
		c0.8-0.5,1.6-0.9,2.5-1.2c1.5-0.5,2.9-0.7,4.1-0.7l0,3l-1.4,0.4c-0.2-0.6-0.3-1-0.5-1.2c-0.2-0.3-0.5-0.4-0.8-0.5
		c-0.3-0.1-0.7,0-1.2,0.1c-0.7,0.2-1.3,0.6-1.8,1.2c-0.5,0.6-0.9,1.4-1.2,2.4c-0.3,1-0.4,2.3-0.4,3.7c0,1.2,0.1,2.3,0.3,3.1
		c0.2,0.9,0.5,1.5,0.9,1.8c0.4,0.4,0.9,0.5,1.5,0.3c0.6-0.2,1-0.5,1.3-1c0.3-0.5,0.4-1.1,0.4-1.9l0-0.4c0-0.5,0-0.9,0-1.1
		c0-0.2-0.1-0.4-0.2-0.5c-0.1-0.1-0.2-0.2-0.3-0.2c-0.1,0-0.3-0.1-0.6-0.1l0-0.7l5.2-1.6l0,0.7C237.9,108.3,237.6,108.5,237.5,108.7
		z M243.1,84.7L70.8,137.3l-1.2,0.3l-0.8-0.6L2.4,86.8v-2.5l66.5,50.4c0.1-1.5,0.4-3.2,0.9-4.8l-64-48.5c0,0,3.3-1,4-1.2
		c0.1,1.4,0.9,2.4,2,3.3c1.5,1.1,15.8,12,17.2,13c1.6,1.2,3.2,2.2,5.2,2.6c0.6,0.1,1.2,0.2,1.8,0.3c0.6,0.1,1.2,0.1,1.8,0.1
		c2.8,0,5.5-0.6,8.1-1.4c0.3-0.1,0.5-0.2,0.8-0.2l0,10.8c0,0.5,0.2,1.1,0.7,1.6c0.3,0.3,0.7,0.7,1.1,1l5.6,4.3
		c0.8,0.6,1.8,1.2,2.7,1.6c0.3,0.1,0.6,0.2,0.9,0.3c0.2,0.1,0.5,0.1,0.7,0.2c0.2,0.1,0.4,0.1,0.6,0.1c0.2,0,0.4,0.1,0.6,0.1
		c0.1,0,0.2,0,0.4,0.1c0.1,0,0.1,0,0.2,0c0.2,0,0.3,0,0.5,0c0.2,0,0.3,0,0.5,0c0.1,0,0.3,0,0.4,0c0.1,0,0.1,0,0.2,0
		c0.1,0,0.2,0,0.3,0c0,0.6,0,1.3,0,1.9c0,0.4-0.2,1.2,0,1.6c0.1,0.3,2.4,1.8,3,2.3c2.4,1.8,5.1,2.5,7.9,2.5c1.9,0,3.8-0.3,5.7-0.8
		c0.6-0.2,7.4-2.2,10.1-3c2.5-0.8,7.2-1.8,7.2-5.1c0-2.4,0-4.9,0-7.3c0-0.5,0-1,0-1.5l11,8.3l10.5-3.2l0-6.3l7.5-2.3l0-5.7l11.3,8.6
		l10.4-3.2l0-8.1l7.6,5.8l11.8-3.6l0-14.7l13.9,10.5l11.8-3.6l0-14.8l13.9,10.5l11.6-3.5l0-9l8.5,6.4l11.6-3.5V77l0,0
		c0.9,0.7,2.6,1.9,2.6,1.9c-6.3,1.9-158.9,48.6-168.2,51.4c-0.5,1.3-0.8,2.9-0.9,4.9l172.2-52.7V84.7z"/>
	<path fill="#C8BF0F" d="M64.2,43.1l15.9,12c0.6,0.4,1.2,0.6,2,0.6c0.5,0,1.1-0.1,1.7-0.3l3-0.9c0.5-0.1,1.7-0.5,1.8-1.5
		c0.1-0.3,0-1-0.7-1.5L72,39.5c-0.6-0.4-1.2-0.6-2-0.6c-0.5,0-1.1,0.1-1.7,0.3l-3,0.9c-0.5,0.1-1.7,0.5-1.8,1.5
		C63.4,41.9,63.4,42.6,64.2,43.1z"/>
</g>
</svg>
