<?xml version="1.0" encoding="utf-8"?>
<!-- Generator: Adobe Illustrator 18.1.1, SVG Export Plug-In . SVG Version: 6.00 Build 0)  -->
<svg version="1.1" id="clean" xmlns="http://www.w3.org/2000/svg" xmlns:xlink="http://www.w3.org/1999/xlink" x="0px" y="0px"
	 viewBox="0 0 350 350" enable-background="new 0 0 350 350" xml:space="preserve">
<symbol  id="woodworking" viewBox="-69.1 -6.1 138.1 12.3">
	<g>
		<path fill="#FFFFFF" d="M-55,3c0.1,0.3,0.2,0.5,0.2,0.8s0.1,0.5,0.1,0.7c0,0.3-0.1,0.5-0.2,0.7s-0.4,0.2-0.7,0.3V6h3.7V5.4
			c-0.2,0-0.4-0.1-0.5-0.3s-0.3-0.3-0.4-0.5s-0.3-0.6-0.4-1.1l-3.3-9.6h-2.1l-2,8.3l-2.4-8.3h-2.2l-2.6,9.8c-0.1,0.5-0.2,0.8-0.3,1
			s-0.2,0.3-0.3,0.4s-0.3,0.2-0.5,0.2V6h4.7V5.4c-0.3,0-0.5-0.1-0.7-0.3s-0.2-0.3-0.2-0.6c0-0.3,0.1-0.8,0.3-1.5l1.5-6.1l2.5,9h2
			l2.1-9L-55,3z"/>
		<path fill="#FFFFFF" d="M-46.3-6.1c-1.7,0-3,0.5-3.9,1.5s-1.3,2.5-1.3,4.5c0,1.3,0.2,2.4,0.6,3.4s1,1.6,1.9,2.1s1.8,0.7,2.9,0.7
			c1.8,0,3.1-0.5,3.9-1.5s1.3-2.5,1.3-4.5c0-1.1-0.1-2.1-0.4-2.9s-0.6-1.4-1.1-2s-1.1-0.9-1.7-1.1S-45.5-6.1-46.3-6.1z M-48.7,0.1
			c0-1.8,0.2-3.1,0.6-4s1.1-1.3,1.9-1.3c0.5,0,0.8,0.1,1.2,0.4s0.6,0.6,0.8,1s0.3,1,0.4,1.6s0.1,1.3,0.1,2c0,1.2-0.1,2.1-0.3,2.9
			s-0.5,1.4-0.8,1.8s-0.8,0.6-1.4,0.6c-0.8,0-1.5-0.4-1.9-1.2S-48.7,1.8-48.7,0.1z"/>
		<path fill="#FFFFFF" d="M-33.8-6.1c-1.7,0-3,0.5-3.9,1.5s-1.3,2.5-1.3,4.5c0,1.3,0.2,2.4,0.6,3.4s1,1.6,1.9,2.1s1.8,0.7,2.9,0.7
			c1.8,0,3.1-0.5,3.9-1.5s1.3-2.5,1.3-4.5c0-1.1-0.1-2.1-0.4-2.9s-0.6-1.4-1.1-2s-1.1-0.9-1.7-1.1S-32.9-6.1-33.8-6.1z M-36.2,0.1
			c0-1.8,0.2-3.1,0.6-4s1.1-1.3,1.9-1.3c0.5,0,0.8,0.1,1.2,0.4s0.6,0.6,0.8,1s0.3,1,0.4,1.6s0.1,1.3,0.1,2c0,1.2-0.1,2.1-0.3,2.9
			s-0.5,1.4-0.8,1.8s-0.8,0.6-1.4,0.6c-0.8,0-1.5-0.4-1.9-1.2S-36.2,1.8-36.2,0.1z"/>
		<path fill="#FFFFFF" d="M-22.1,6c1,0,1.8-0.1,2.5-0.2s1.2-0.4,1.7-0.7s0.9-0.7,1.2-1.2s0.5-1,0.7-1.6s0.2-1.3,0.2-2
			c0-0.9-0.1-1.7-0.3-2.5s-0.5-1.3-1-1.9c-0.4-0.5-0.8-0.8-1.4-1.1s-1.2-0.5-1.9-0.6C-20.9-5.9-21.7-6-22.7-6h-4v0.6
			c0.2,0.1,0.4,0.1,0.5,0.2s0.2,0.2,0.3,0.3s0.1,0.3,0.1,0.5s0,0.4,0,0.7v7.6c0,0.3,0,0.5,0,0.7s-0.1,0.3-0.1,0.5s-0.2,0.2-0.3,0.3
			s-0.3,0.1-0.5,0.2V6H-22.1z M-23-4.9c0.1,0,0.4,0,0.8,0c0.6,0,1.2,0.1,1.6,0.3c0.3,0.1,0.6,0.3,0.8,0.6c0.4,0.4,0.7,0.9,0.9,1.6
			c0.2,0.7,0.3,1.6,0.3,2.6c0,1.1-0.1,2-0.4,2.8s-0.7,1.3-1.3,1.6S-21.5,5-22.2,5c-0.4,0-0.6,0-0.8,0V-4.9z"/>
		<path fill="#FFFFFF" d="M-1,3c0.1,0.3,0.2,0.5,0.2,0.8s0.1,0.5,0.1,0.7c0,0.3-0.1,0.5-0.2,0.7s-0.4,0.2-0.7,0.3V6h3.7V5.4
			c-0.2,0-0.4-0.1-0.5-0.3S1.3,4.9,1.1,4.7S0.9,4.1,0.7,3.6l-3.3-9.6h-2.1l-2,8.3L-9-6.1h-2.2l-2.6,9.8c-0.1,0.5-0.2,0.8-0.3,1
			s-0.2,0.3-0.3,0.4s-0.3,0.2-0.5,0.2V6h4.7V5.4c-0.3,0-0.5-0.1-0.7-0.3s-0.2-0.3-0.2-0.6c0-0.3,0.1-0.8,0.3-1.5L-9.4-3l2.5,9h2
			l2.1-9L-1,3z"/>
		<path fill="#FFFFFF" d="M7.7-6.1c-1.7,0-3,0.5-3.9,1.5S2.5-2.1,2.5-0.1c0,1.3,0.2,2.4,0.6,3.4s1,1.6,1.9,2.1s1.8,0.7,2.9,0.7
			c1.8,0,3.1-0.5,3.9-1.5s1.3-2.5,1.3-4.5c0-1.1-0.1-2.1-0.4-2.9s-0.6-1.4-1.1-2S10.6-5.5,10-5.8S8.5-6.1,7.7-6.1z M5.3,0.1
			c0-1.8,0.2-3.1,0.6-4S7-5.1,7.9-5.1c0.5,0,0.8,0.1,1.2,0.4s0.6,0.6,0.8,1s0.3,1,0.4,1.6s0.1,1.3,0.1,2c0,1.2-0.1,2.1-0.3,2.9
			S9.6,4.1,9.3,4.5S8.4,5.1,7.8,5.1C7,5.1,6.4,4.7,5.9,3.9S5.3,1.8,5.3,0.1z"/>
		<path fill="#FFFFFF" d="M19.4-6h-4.6v0.6c0.2,0.1,0.4,0.1,0.5,0.2s0.2,0.2,0.3,0.3s0.1,0.3,0.1,0.5s0,0.4,0,0.7v7.6
			c0,0.3,0,0.5,0,0.7s-0.1,0.3-0.1,0.5s-0.2,0.2-0.3,0.3S15,5.4,14.8,5.4V6h5.1c0.7,0,1.3,0,1.8-0.1s0.9-0.2,1.3-0.4
			c0.3-0.2,0.6-0.4,0.8-0.6s0.4-0.5,0.5-0.9s0.2-0.7,0.2-1.2c0-0.6-0.1-1.1-0.3-1.5s-0.5-0.8-0.8-1s-0.8-0.5-1.4-0.8v-0.1
			C22.3-0.8,22.7-1,23-1.3s0.5-0.7,0.8-1.2l0.6-1.2c0.2-0.5,0.5-0.9,0.7-1.2s0.5-0.4,0.9-0.5V-6h-3.4c-0.3,0.5-0.7,1.2-1.2,2.1
			l-0.7,1.5c-0.2,0.4-0.4,0.8-0.5,0.9s-0.3,0.3-0.5,0.4S19.3-1,19-1h-0.5v-2.8c0-0.4,0-0.7,0.1-0.9s0.1-0.3,0.2-0.4s0.3-0.2,0.7-0.3
			V-6z M18.5,5V0.1h0.9c0.5,0,0.9,0.1,1.2,0.2s0.5,0.3,0.7,0.5s0.3,0.5,0.4,0.8s0.1,0.6,0.1,1c0,0.8-0.2,1.4-0.6,1.8S20.2,5,19.5,5
			C19,5,18.6,5,18.5,5z"/>
		<path fill="#FFFFFF" d="M37.1-3.7c0.2-0.4,0.4-0.6,0.6-0.8S38-4.9,38.1-5s0.2-0.2,0.3-0.3s0.3-0.1,0.5-0.2V-6h-4.8v0.6
			c0.2,0,0.3,0.1,0.4,0.1s0.1,0.2,0.1,0.3c0,0.1,0,0.2,0,0.3s-0.1,0.2-0.2,0.4s-0.3,0.5-0.6,1l-1.3,2.1C32.3-1,32.1-0.8,32-0.7
			s-0.2,0.2-0.4,0.3s-0.3,0.1-0.5,0.1H31v-3.5c0-0.2,0-0.4,0-0.6s0-0.3,0.1-0.4s0.1-0.2,0.2-0.3s0.2-0.1,0.3-0.2s0.3-0.1,0.4-0.1V-6
			h-4.6v0.6c0.2,0.1,0.4,0.1,0.5,0.2s0.2,0.2,0.3,0.3s0.1,0.3,0.1,0.5s0,0.4,0,0.7v7.6c0,0.3,0,0.5,0,0.7s-0.1,0.3-0.1,0.5
			S28,5.1,27.8,5.2s-0.3,0.1-0.5,0.2V6h4.6V5.4c-0.2-0.1-0.4-0.1-0.5-0.2S31.2,5,31.1,4.9S31,4.7,31,4.5s0-0.4,0-0.7V0.7h0.2
			c0.3,0,0.5,0,0.6,0.1s0.3,0.2,0.5,0.3s0.5,0.5,1,1.1s0.8,1,1,1.3s0.4,0.6,0.4,0.7s0.1,0.4,0.1,0.6c0,0.2-0.1,0.4-0.2,0.5
			s-0.3,0.2-0.6,0.2V6h4.5V5.4c-0.2,0-0.4-0.1-0.6-0.2S37.6,5,37.4,4.8S37,4.4,36.7,4l-2.6-3L37.1-3.7z"/>
		<path fill="#FFFFFF" d="M43.9-3.8c0-0.2,0-0.4,0-0.6s0-0.3,0.1-0.4s0.1-0.2,0.2-0.3s0.2-0.1,0.3-0.2s0.3-0.1,0.4-0.1V-6h-4.6v0.6
			c0.2,0.1,0.4,0.1,0.5,0.2S41-5.1,41-4.9s0.1,0.3,0.1,0.5s0,0.4,0,0.7v7.6c0,0.3,0,0.5,0,0.7S41.1,4.8,41,4.9s-0.2,0.2-0.3,0.3
			s-0.3,0.1-0.5,0.2V6h4.6V5.4c-0.2-0.1-0.4-0.1-0.5-0.2S44.1,5,44,4.9s-0.1-0.2-0.1-0.4s0-0.4,0-0.7V-3.8z"/>
		<path fill="#FFFFFF" d="M57.3,6V5.4c-0.2-0.1-0.4-0.1-0.5-0.2S56.6,5.1,56.6,5s-0.1-0.2-0.2-0.4s-0.1-0.5-0.1-0.8V-6h-2.2l-4,6.8
			C49.7,1.8,49.3,2.5,49,3h-0.1C49,1.8,49,0.4,49-1v-2.8c0-0.4,0-0.7,0.1-0.9s0.1-0.3,0.2-0.4s0.3-0.2,0.6-0.3V-6h-3.3v0.6
			c0.2,0.1,0.4,0.1,0.5,0.2s0.2,0.2,0.3,0.3s0.1,0.3,0.1,0.5s0,0.4,0,0.7v7.6c0,0.4,0,0.7-0.1,0.9S47.4,5,47.3,5.1S47,5.3,46.6,5.4
			V6h3.6l3.1-5.4c0.2-0.3,0.4-0.8,0.8-1.4s0.6-1.1,0.8-1.6H55C55-1,54.9,0.5,54.9,2.2v1.6c0,0.4,0,0.7,0,0.8S54.8,4.9,54.8,5
			s-0.1,0.2-0.2,0.2S54.2,5.3,54,5.4V6H57.3z"/>
		<path fill="#FFFFFF" d="M68,5.7V3.2h-1.2c-0.1,0.5-0.3,0.9-0.5,1.1s-0.4,0.5-0.7,0.6S65,5.1,64.6,5.1c-0.6,0-1.1-0.2-1.5-0.5
			S62.3,3.7,62,2.9s-0.4-1.8-0.4-2.9c0-1,0.1-1.9,0.3-2.7s0.4-1.3,0.8-1.8s0.8-0.6,1.3-0.6c0.5,0,0.9,0.2,1.1,0.5s0.4,0.8,0.4,1.5
			v0.3c0,0.4,0,0.8,0,1s-0.1,0.3-0.1,0.4s-0.1,0.2-0.2,0.2S64.8-1.1,64.6-1v0.6h4.5V-1c-0.3-0.1-0.5-0.2-0.6-0.3s-0.2-0.3-0.2-0.4
			s-0.1-0.4-0.1-0.8v-3.3l-1.3-0.3l-0.6,0.6c-0.7-0.4-1.5-0.6-2.4-0.6c-1.7,0-3,0.5-3.8,1.5s-1.3,2.5-1.3,4.5c0,1.1,0.1,2,0.4,2.8
			s0.7,1.5,1.2,2s1.1,0.9,1.8,1.1s1.4,0.3,2.1,0.3C65.7,6.1,66.9,6,68,5.7z"/>
	</g>
</symbol>
<symbol  id="woodworking_rotated" viewBox="-69.1 -6.1 138.1 12.3">
	
		<use xlink:href="#woodworking"  width="138.1" height="12.3" x="-69.1" y="-6.1" transform="matrix(-1 8.979300e-11 -8.979300e-11 -1 -4.882810e-04 -8.003553e-10)" overflow="visible"/>
</symbol>
<g>
	<path fill="#FFFFFF" d="M221.7,207.2c-0.4-0.4-1-0.4-1.7-0.2c-1,0.3-1.7,1-2.2,2.1c-0.5,1.1-0.7,2.7-0.7,4.8c0,2.1,0.3,3.7,0.7,4.5
		c0.5,0.9,1.2,1.2,2.3,0.9c0.5-0.2,1-0.5,1.3-0.9c0.4-0.4,0.7-0.9,0.9-1.5c0.2-0.6,0.4-1.3,0.5-2c0.1-0.7,0.2-1.6,0.2-2.4
		c0-1.4-0.1-2.6-0.3-3.4C222.5,208.2,222.2,207.6,221.7,207.2z"/>
	<path fill="#FFFFFF" d="M158.8,226.4c-0.4-0.4-1-0.4-1.7-0.2c-1,0.3-1.7,1-2.2,2.1c-0.5,1.1-0.7,2.7-0.7,4.8c0,2.1,0.3,3.7,0.7,4.5
		c0.5,0.9,1.2,1.2,2.3,0.9c0.5-0.2,1-0.4,1.3-0.9c0.4-0.4,0.7-0.9,0.9-1.5c0.2-0.6,0.4-1.3,0.5-2c0.1-0.7,0.1-1.6,0.1-2.4
		c0-1.4-0.1-2.6-0.3-3.4C159.6,227.4,159.3,226.8,158.8,226.4z"/>
	<path fill="#FFFFFF" d="M173.4,222c-0.4-0.4-1-0.4-1.7-0.2c-1,0.3-1.7,1-2.2,2.1c-0.5,1.1-0.7,2.7-0.7,4.8c0,2.1,0.3,3.7,0.7,4.5
		c0.5,0.9,1.3,1.2,2.3,0.9c0.5-0.2,1-0.4,1.3-0.9c0.4-0.4,0.7-0.9,0.9-1.5c0.2-0.6,0.4-1.3,0.5-2c0.1-0.7,0.1-1.6,0.1-2.4
		c0-1.4-0.1-2.6-0.3-3.4C174.2,222.9,173.9,222.3,173.4,222z"/>
	<path fill="#FFFFFF" d="M233.6,203c-0.6,0.2-1,0.3-1.2,0.4l0,5.9l1-0.3c0.5-0.2,1-0.4,1.4-0.6c0.4-0.3,0.6-0.6,0.8-0.9
		c0.2-0.3,0.3-0.7,0.4-1.1c0.1-0.4,0.1-0.8,0.1-1.2c0-1-0.2-1.6-0.7-2C235.1,202.8,234.5,202.8,233.6,203z"/>
	<path fill="#FFFFFF" d="M187.4,217.8c-0.6-0.2-1.4-0.2-2.3,0c-0.4,0.1-0.7,0.2-0.9,0.3l0,12c0.1,0,0.4-0.1,0.9-0.3
		c0.7-0.2,1.4-0.5,1.9-0.9c0.4-0.3,0.7-0.6,1-1c0.5-0.6,0.8-1.4,1-2.2c0.2-0.9,0.4-2,0.4-3.2c0-1.3-0.2-2.4-0.5-3.2
		C188.5,218.5,188,218,187.4,217.8z"/>
	<path fill="#FFFFFF" d="M298.6,211.3l0-44.6l0,0v0c0-0.9-0.4-1.8-0.9-2.6v0l0,0c-0.3-0.4-0.7-0.8-1.1-1.1c0,0,0,0,0,0l-4-3l0-25.3
		l-29-21.9l-6.3,1.9V108l-30.9-23.4l-13.9,4.3l0,5.3l-8.3-2.8l-12.8,3.9l0,6l-5.7-4.3l-15,4.6l0,20.3l-19.1-14.5l-15,4.6l0,6.1
		c-2.4-1.5-5.2-2.3-8.5-2.3c-2.6,0-5.6,0.5-8.8,1.5l-10.7,3.3c-3.6,1.1-8.3,3-8.3,6.6h0l0,5.9l-2.9-2.2c-1.6-1.2-3.4-2-5.4-2.5
		c-1.2-0.3-2.5-0.4-3.8-0.4c-1.3,0-2.7,0.1-4.2,0.4c-1.4,0.2-3,0.6-4.6,1.1l-10.2,3.1c-3.6,1.1-8.3,3-8.3,6.6h0l0,23.4
		c-1.5,0.5-3,0.9-4.6,1.4c-1.7,0.4-3.3,1.6-3.3,3.6l0,44.6c0,0,0.2,0.1,0,0c0,1.5,0.9,2.7,2.1,3.6c4.5,3.6,68.2,51.6,68.2,51.6
		c0,0,0,0,0,0c0,0,0,0,0,0c0,0,0.1,0.1,0.1,0.1c0,0,172.1-52.6,172.1-52.6C297.2,214.4,298.6,213,298.6,211.3L298.6,211.3
		C298.6,211.3,298.6,211.3,298.6,211.3z M268.3,129.9l-10.8,3.3l10.8,8.2l-9.2,2.8L233.7,125l9.2-2.8l11.2,8.5l10.8-3.3l-11.2-8.5
		l9.2-2.8l25.4,19.3l-9.2,2.8L268.3,129.9z M168.8,149.6l8,13.6l-6.5,2l-23.6-9.9l22,16.7l-8.2,2.5l-25.4-19.3l10.7-3.3l24,9.9
		l-8.5-14.7l11.2-3.4l25.4,19.3l-8.1,2.5L168.8,149.6z M133.6,182.6c-2.7,0.8-5.2,1.3-7.4,1.3c-2.8,0-5.1-0.7-6.9-2.1l-1.7-1.3
		l9.4-2.9l1.9,1.4c0.5,0.4,1.2,0.6,1.9,0.6c0.5,0,1-0.1,1.6-0.3l1.9-0.6c0.4-0.1,1.6-0.5,1.8-1.5c0.1-0.3,0-0.9-0.7-1.5l-3.9-2.9
		c-0.5-0.4-1.2-0.6-1.9-0.6c-0.5,0-1,0.1-1.6,0.3l-6.4,2c-2.1,0.6-3.9,1-5.6,1.1c-0.3,0-0.7,0-1,0c-0.5,0-1,0-1.4-0.1
		c-2.1-0.3-4-1-5.6-2.2l-5.6-4.3c-0.6-0.5-1.6-1.3-1.5-2c0.1-0.5,0.8-1.8,5.7-3.2l9.2-2.8c2.7-0.8,5.1-1.2,7.3-1.2
		c2.8,0,5.1,0.7,6.9,2.1l1.7,1.3l-9.4,2.9l-1.9-1.4c-0.5-0.4-1.2-0.6-1.9-0.6c-0.5,0-1,0.1-1.6,0.3l-1.9,0.6
		c-0.4,0.1-1.6,0.5-1.8,1.5c-0.1,0.3,0,0.9,0.7,1.5l4,3.1c0.5,0.4,1.2,0.6,1.9,0.6c0.5,0,1-0.1,1.6-0.3l2.4-0.7l3.9-1.2
		c2.6-0.8,4.9-1.2,6.8-1.2c0.4,0,0.9,0,1.2,0.1c1.8,0.2,3.5,0.8,4.9,1.7c0.2,0.1,0.4,0.3,0.6,0.4l5.6,4.3c0.6,0.5,1.6,1.3,1.4,2
		c-0.1,0.5-0.8,1.8-5.7,3.2L133.6,182.6z M65.5,141.2c-0.8-0.6-1.7-1.5-1.6-2.2c0.1-0.5,0.9-1.9,6.2-3.6l10.2-3.1
		c2.9-0.9,5.6-1.3,7.9-1.3c3,0,5.5,0.8,7.5,2.2l3.8,2.8l-10.3,3.1l-4.3-3.3c-0.6-0.4-1.2-0.6-2-0.6c-0.5,0-1.1,0.1-1.7,0.3l-2.5,0.8
		c-0.5,0.1-1.7,0.5-1.8,1.5c-0.1,0.3,0,1,0.7,1.5l16.8,12.7c0.6,0.4,1.2,0.6,2,0.6c0.5,0,1.1-0.1,1.7-0.3l2.5-0.8
		c0.5-0.1,1.7-0.5,1.8-1.5c0.1-0.3,0-1-0.7-1.5l-3-2.3l10.3-3.1l4.7,3.6c0.7,0.5,1.4,1.2,1.5,1.8c0,0.1,0.1,0.3,0,0.4
		c-0.1,0.5-0.9,1.9-6.2,3.6l-10.2,3.1c-2.9,0.9-5.6,1.3-7.9,1.3c-0.9,0-1.7-0.1-2.5-0.2c-1.9-0.3-3.5-1-4.9-2L65.5,141.2z
		 M103.3,126.9c0.1-0.5,0.9-1.9,6.2-3.6l10.7-3.3c2.9-0.9,5.6-1.3,7.9-1.3c3,0,5.5,0.8,7.5,2.2l18,13.6c0.6,0.5,1.4,1.2,1.5,1.8
		c0,0.1,0.1,0.3,0,0.4c-0.1,0.5-0.9,1.9-6.2,3.6l-10.7,3.3c-2.9,0.9-5.6,1.3-7.9,1.3c-0.9,0-1.8-0.1-2.6-0.2c-1.9-0.3-3.5-1-4.8-2
		l-18-13.6C104.1,128.6,103.2,127.7,103.3,126.9z M235.4,105l-18.9-14.3l9.2-2.8l27.4,20.7l-8.7,2.6l-31.1-10.3L232,115l-9.2,2.8
		l-27.4-20.7l8.6-2.6L235.4,105z M212.4,121l-10.3,3.1l-27.4-20.7l10.3-3.1L212.4,121z M174.5,128.6l14.3-4.4l3.8,2.9l-24.6,7.5
		l-27.4-20.7l10.3-3.1L174.5,128.6z M182.4,140.7l9.4-2.9l25.4,19.3l-9.4,2.9L182.4,140.7z M211.4,135.4l-8.3,2.5l-3.4-2.6l26-8
		l3.4,2.6l-8.3,2.5l22,16.7l-9.4,2.9L211.4,135.4z M149.8,228.4c-0.2,0.2-0.3,0.5-0.5,0.8c-0.1,0.3-0.3,0.8-0.5,1.5l-3.8,12.8
		l-2.4,0.7l-2.3-9.3l-2.7,10.8l-2.6,0.8l-3.1-11c-0.1-0.5-0.3-0.9-0.4-1.1c-0.1-0.2-0.2-0.3-0.4-0.4c-0.1-0.1-0.3-0.1-0.5-0.1l0-0.7
		l5.5-1.7l0,0.7c-0.4,0.2-0.6,0.3-0.8,0.5c-0.2,0.2-0.3,0.5-0.3,0.8c0,0.4,0.1,0.9,0.3,1.7l1.8,6.8l2.9-11.7l2.3-0.7l2.4,10.1
		l2.2-7.8c0.1-0.4,0.2-0.7,0.2-1.1c0.1-0.3,0.1-0.6,0.1-0.9c0-0.4-0.1-0.6-0.3-0.7c-0.2-0.1-0.4-0.1-0.8-0.1l0-0.7l4.3-1.3l0,0.7
		C150.2,228,150,228.2,149.8,228.4z M162.9,233.9c-0.3,1-0.7,2-1.3,2.8c-0.6,0.8-1.2,1.4-2,2c-0.8,0.5-1.6,0.9-2.6,1.2
		c-2,0.6-3.5,0.5-4.5-0.4c-1-0.9-1.5-2.6-1.5-5c0-1.6,0.2-3,0.7-4.3c0.5-1.3,1.2-2.4,2.2-3.2c1-0.9,2.1-1.5,3.4-1.9
		c2-0.6,3.6-0.5,4.6,0.4c1,0.9,1.5,2.6,1.5,4.9C163.4,231.7,163.2,232.8,162.9,233.9z M177.6,229.4c-0.3,1-0.7,2-1.3,2.8
		c-0.6,0.8-1.2,1.4-2,2c-0.8,0.5-1.7,0.9-2.6,1.2c-2,0.6-3.5,0.5-4.5-0.4c-1-0.9-1.5-2.6-1.5-5c0-1.6,0.2-3,0.7-4.3
		c0.5-1.3,1.2-2.3,2.1-3.2c1-0.9,2.1-1.5,3.4-1.9c2-0.6,3.6-0.5,4.6,0.4c1,0.9,1.5,2.6,1.5,4.9C178,227.2,177.9,228.4,177.6,229.4z
		 M192.3,224.3c-0.3,1-0.6,1.8-1.1,2.6c-0.4,0.7-1,1.3-1.6,1.9c-0.6,0.6-1.4,1-2.2,1.5c-0.7,0.3-1.6,0.7-2.7,1l-4.6,1.4l0-0.7
		c0.3-0.2,0.4-0.3,0.6-0.4c0.1-0.1,0.3-0.3,0.3-0.4c0.1-0.2,0.1-0.4,0.1-0.6c0-0.2,0-0.5,0-0.9l0-9.2c0-0.3,0-0.6,0-0.8
		c0-0.2-0.1-0.4-0.1-0.5c-0.1-0.1-0.2-0.2-0.3-0.2c-0.1-0.1-0.4-0.1-0.6-0.1l0-0.7l5.3-1.6c1.1-0.3,2.1-0.5,2.9-0.6
		c0.8,0,1.4,0,2,0.2c0.6,0.2,1.1,0.5,1.4,1c0.4,0.4,0.6,1,0.8,1.7c0.2,0.7,0.3,1.5,0.3,2.4C192.7,222.3,192.5,223.4,192.3,224.3z
		 M212.7,209.2c-0.2,0.2-0.3,0.5-0.5,0.8c-0.1,0.3-0.3,0.8-0.5,1.5l-3.8,12.8l-2.4,0.7l-2.3-9.3l-2.7,10.8l-2.6,0.8l-3.1-11
		c-0.1-0.5-0.3-0.9-0.4-1.1c-0.1-0.2-0.2-0.3-0.4-0.4c-0.1-0.1-0.3-0.1-0.5-0.1l0-0.7l5.5-1.7l0,0.7c-0.4,0.2-0.6,0.3-0.8,0.5
		c-0.2,0.2-0.3,0.5-0.3,0.8c0,0.4,0.1,0.9,0.3,1.7l1.8,6.8l2.9-11.7l2.3-0.7l2.4,10.1l2.2-7.8c0.1-0.4,0.2-0.7,0.2-1.1
		c0.1-0.3,0.1-0.6,0.1-0.9c0-0.4-0.1-0.6-0.3-0.7c-0.2-0.1-0.4-0.1-0.8-0.1l0-0.7l4.3-1.3l0,0.7C213.1,208.8,212.9,209,212.7,209.2z
		 M225.8,214.7c-0.3,1-0.7,2-1.3,2.8c-0.6,0.8-1.2,1.4-2,2c-0.8,0.5-1.6,0.9-2.6,1.2c-2,0.6-3.5,0.5-4.5-0.4c-1-0.9-1.5-2.6-1.5-5
		c0-1.6,0.2-3,0.7-4.3c0.5-1.3,1.2-2.3,2.2-3.2c0.9-0.9,2.1-1.5,3.4-1.9c2-0.6,3.6-0.5,4.6,0.4c1,0.9,1.5,2.6,1.5,4.9
		C226.3,212.4,226.1,213.6,225.8,214.7z M237.2,215.2c-0.4-0.4-0.8-1.1-1.3-2.1l-0.8-1.6c-0.2-0.5-0.5-0.8-0.6-1
		c-0.2-0.2-0.3-0.3-0.5-0.3c-0.2,0-0.5,0-0.8,0.1l-0.6,0.2l0,3.4c0,0.5,0,0.9,0.1,1.1c0.1,0.2,0.1,0.3,0.3,0.4
		c0.1,0.1,0.4,0.1,0.8,0.1l0,0.7l-5.4,1.6l0-0.7c0.3-0.2,0.5-0.3,0.6-0.4c0.1-0.1,0.3-0.3,0.3-0.4c0.1-0.2,0.1-0.4,0.1-0.6
		c0-0.2,0-0.5,0-0.9l0-9.2c0-0.3,0-0.6,0-0.8c0-0.2-0.1-0.4-0.1-0.5c-0.1-0.1-0.2-0.2-0.3-0.2c-0.1-0.1-0.3-0.1-0.6-0.1l0-0.7l6-1.8
		c0.8-0.2,1.5-0.4,2-0.5c0.6-0.1,1.1,0,1.5,0.1c0.3,0.1,0.6,0.2,0.9,0.5c0.3,0.2,0.4,0.5,0.6,0.9c0.1,0.4,0.2,0.8,0.2,1.3
		c0,0.7-0.1,1.3-0.4,1.9c-0.2,0.6-0.6,1.1-1,1.5c-0.4,0.5-0.9,0.9-1.6,1.4v0.1c0.5,0.1,0.9,0.2,1.3,0.5c0.3,0.3,0.6,0.7,0.9,1.2
		l0.7,1.2c0.3,0.6,0.6,1,0.9,1.2c0.3,0.2,0.6,0.3,1,0.3l0,0.7L237.2,215.2z M250.6,211.1l0-0.7c0.2-0.1,0.4-0.2,0.5-0.3
		c0.1-0.1,0.1-0.2,0.1-0.4c0-0.1,0-0.2,0-0.3s-0.1-0.2-0.2-0.4c-0.1-0.2-0.4-0.5-0.7-1l-1.6-2c-0.2-0.2-0.4-0.4-0.5-0.6
		c-0.1-0.1-0.3-0.2-0.4-0.2c-0.1,0-0.3,0-0.6,0.1l-0.2,0.1l0,4.2c0,0.3,0,0.5,0,0.7c0,0.2,0,0.4,0.1,0.5c0,0.1,0.1,0.2,0.2,0.3
		c0.1,0.1,0.2,0.1,0.3,0.1c0.1,0,0.3,0,0.5,0l0,0.7l-5.4,1.6l0-0.7c0.3-0.2,0.5-0.3,0.6-0.4c0.1-0.1,0.3-0.3,0.3-0.4
		c0.1-0.2,0.1-0.4,0.1-0.6c0-0.2,0-0.5,0-0.9l0-9.2c0-0.3,0-0.6,0-0.8c0-0.2-0.1-0.4-0.1-0.5c-0.1-0.1-0.2-0.2-0.3-0.2
		c-0.1-0.1-0.4-0.1-0.6-0.1l0-0.7l5.4-1.6l0,0.7c-0.3,0.2-0.5,0.3-0.6,0.4c-0.1,0.1-0.2,0.3-0.3,0.4c-0.1,0.1-0.1,0.3-0.1,0.5
		c0,0.2,0,0.5,0,0.9l0,3.8l0.2-0.1c0.3-0.1,0.6-0.2,0.8-0.3c0.2-0.1,0.4-0.3,0.6-0.6c0.2-0.2,0.6-0.8,1.1-1.6c0.6-0.8,1-1.5,1.2-1.9
		c0.3-0.4,0.4-0.8,0.5-1.1c0.1-0.3,0.1-0.5,0.1-0.7c0-0.3-0.1-0.4-0.2-0.5c-0.2-0.1-0.4-0.1-0.7,0l0-0.7l5.2-1.6l0,0.7
		c-0.3,0.1-0.5,0.3-0.7,0.4c-0.2,0.2-0.4,0.4-0.6,0.7c-0.2,0.3-0.5,0.7-0.9,1.3l-3.1,4.5l3.6,4.6c0.3,0.4,0.5,0.6,0.7,0.8
		c0.2,0.2,0.3,0.3,0.5,0.4c0.1,0.1,0.3,0.2,0.4,0.2c0.1,0,0.3,0,0.5,0l0,0.7L250.6,211.1z M257.8,208.9l0-0.7
		c0.3-0.2,0.4-0.3,0.6-0.4c0.1-0.1,0.3-0.3,0.3-0.4c0.1-0.2,0.1-0.4,0.1-0.6c0-0.2,0-0.5,0-0.9l0-9.2c0-0.3,0-0.6,0-0.8
		c0-0.2-0.1-0.4-0.1-0.5c-0.1-0.1-0.2-0.2-0.3-0.2c-0.1,0-0.3-0.1-0.6,0l0-0.7l5.4-1.6l0,0.7c-0.3,0.2-0.5,0.3-0.6,0.4
		c-0.1,0.1-0.2,0.3-0.3,0.4c-0.1,0.2-0.1,0.3-0.1,0.5c0,0.2,0,0.5,0,0.9l0,9.2c0,0.3,0,0.5,0,0.7c0,0.2,0,0.4,0.1,0.5
		c0,0.1,0.1,0.2,0.2,0.3c0.1,0.1,0.2,0.1,0.3,0.1c0.1,0,0.3,0,0.5,0l0,0.7L257.8,208.9z M277.1,189.4c-0.1,0.1-0.2,0.2-0.3,0.3
		c-0.1,0.1-0.1,0.3-0.2,0.5c0,0.2-0.1,0.6-0.1,1l0,11.8l-2.6,0.8c0,0-5.7-8.5-6-9.1l-0.1,0c0.1,1.5,0.1,3.1,0.1,4.8l0,3.4
		c0,0.5,0,0.9,0.1,1.1c0.1,0.2,0.1,0.3,0.3,0.4c0.1,0.1,0.4,0.1,0.8,0.1l0,0.7l-3.9,1.2l0-0.7c0.3-0.2,0.5-0.3,0.6-0.4
		c0.1-0.1,0.3-0.3,0.3-0.4c0.1-0.2,0.1-0.4,0.1-0.6c0-0.2,0-0.5,0-0.8l0-9.2c0-0.5,0-0.9-0.1-1.1c0-0.2-0.1-0.3-0.3-0.4
		c-0.1-0.1-0.4-0.1-0.8-0.1l0-0.7l4.1-1.3c0,0,5.2,8,5.5,8.5l0.2,0c-0.1-1.7-0.1-3.5-0.1-5.5l0-2c0-0.5,0-0.8-0.1-1
		c0-0.2-0.1-0.3-0.2-0.4c-0.1-0.1-0.2-0.1-0.3-0.2c-0.1,0-0.3-0.1-0.6,0l0-0.7l3.9-1.2l0,0.7C277.4,189.2,277.2,189.3,277.1,189.4z
		 M290.6,193.2c-0.1,0.2-0.2,0.4-0.3,0.6c0,0.2-0.1,0.6-0.1,1l0,4l-1.5,0.8l-0.7-0.5c-0.8,0.8-1.7,1.3-2.8,1.6
		c-2,0.6-3.5,0.5-4.5-0.5c-1-0.9-1.5-2.6-1.5-5c0-1.3,0.2-2.5,0.5-3.6c0.3-1.1,0.8-2,1.4-2.8c0.6-0.8,1.3-1.5,2.1-2
		c0.8-0.5,1.6-0.9,2.5-1.2c1.5-0.5,2.9-0.7,4.1-0.7l0,3l-1.4,0.4c-0.2-0.6-0.3-1-0.5-1.2c-0.2-0.3-0.5-0.4-0.8-0.5
		c-0.3-0.1-0.7,0-1.2,0.1c-0.7,0.2-1.3,0.6-1.8,1.2c-0.5,0.6-0.9,1.4-1.2,2.4c-0.3,1-0.4,2.3-0.4,3.7c0,1.2,0.1,2.3,0.3,3.1
		c0.2,0.9,0.5,1.5,0.9,1.8c0.4,0.4,0.9,0.5,1.5,0.3c0.6-0.2,1-0.5,1.3-1c0.3-0.5,0.4-1.1,0.4-1.9l0-0.4c0-0.5,0-0.9,0-1.1
		c0-0.2-0.1-0.4-0.2-0.5c-0.1-0.1-0.2-0.2-0.3-0.2c-0.1,0-0.3-0.1-0.6-0.1l0-0.7l5.2-1.6l0,0.7C291,192.8,290.7,193,290.6,193.2z
		 M296.2,169.2l-172.3,52.7l-1.2,0.3l-0.8-0.6l-66.4-50.3v-2.5l66.5,50.4c0.1-1.5,0.4-3.2,0.9-4.8l-64-48.5c0,0,3.3-1,4-1.2
		c0.1,1.4,0.9,2.4,2,3.3c1.5,1.1,15.8,12,17.2,13c1.6,1.2,3.2,2.2,5.2,2.6c0.6,0.1,1.2,0.2,1.8,0.3c0.6,0.1,1.2,0.1,1.8,0.1
		c2.8,0,5.5-0.6,8.1-1.4c0.3-0.1,0.5-0.2,0.8-0.2l0,10.8c0,0.5,0.2,1.1,0.7,1.6c0.3,0.3,0.7,0.7,1.1,1l5.6,4.3
		c0.8,0.6,1.8,1.2,2.7,1.6c0.3,0.1,0.6,0.2,0.9,0.3c0.2,0.1,0.5,0.1,0.7,0.2c0.2,0.1,0.4,0.1,0.6,0.1c0.2,0,0.4,0.1,0.6,0.1
		c0.1,0,0.2,0,0.4,0.1c0.1,0,0.1,0,0.2,0c0.2,0,0.3,0,0.5,0c0.2,0,0.3,0,0.5,0c0.1,0,0.3,0,0.4,0c0.1,0,0.1,0,0.2,0
		c0.1,0,0.2,0,0.3,0c0,0.6,0,1.3,0,1.9c0,0.4-0.2,1.2,0,1.6c0.1,0.3,2.4,1.8,3,2.3c2.4,1.8,5.1,2.5,7.9,2.5c1.9,0,3.8-0.3,5.7-0.8
		c0.6-0.2,7.4-2.2,10.1-3c2.5-0.8,7.2-1.8,7.2-5.1c0-2.4,0-4.9,0-7.3c0-0.5,0-1,0-1.5l11,8.3l10.5-3.2l0-6.3l7.5-2.3l0-5.7l11.3,8.6
		l10.4-3.2l0-8.1l7.6,5.8l11.8-3.6l0-14.7l13.9,10.5l11.8-3.6l0-14.8l13.9,10.5l11.6-3.5l0-9l8.5,6.4l11.6-3.5v-0.1c0,0,0,0,0,0
		c0.9,0.7,2.6,1.9,2.6,1.9c-6.3,1.9-158.9,48.6-168.2,51.4c-0.5,1.3-0.8,2.9-0.9,4.9l172.2-52.7V169.2z"/>
	<path fill="#FFFFFF" d="M117.3,127.7l15.9,12c0.6,0.4,1.2,0.6,2,0.6c0.5,0,1.1-0.1,1.7-0.3l3-0.9c0.5-0.1,1.7-0.5,1.8-1.5
		c0.1-0.3,0-1-0.7-1.5l-15.9-12c-0.6-0.4-1.2-0.6-2-0.6c-0.5,0-1.1,0.1-1.7,0.3l-3,0.9c-0.5,0.1-1.7,0.5-1.8,1.5
		C116.5,126.5,116.6,127.1,117.3,127.7z"/>
</g>
</svg>
